<svg id="Group_255" data-name="Group 255" xmlns="http://www.w3.org/2000/svg" viewBox="0 0 80.16 118.331">
  <defs>
    <style>
      .cls-1 {
        fill: #fcd770;
      }

      .cls-2 {
        fill: #ffc729;
      }

      .cls-3 {
        fill: #f9e0a6;
      }

      .cls-4 {
        fill: #eabd8c;
      }

      .cls-5 {
        fill: #ececec;
      }

      .cls-6 {
        fill: #b6c1ce;
      }

      .cls-7 {
        fill: #48c397;
      }

      .cls-8 {
        fill: #0fa196;
      }
    </style>
  </defs>
  <g id="teacher" transform="translate(0 0)">
    <path id="Path_5279" data-name="Path 5279" class="cls-1" d="M162.72,8A26.72,26.72,0,0,0,136,34.72V49.988h53.44V34.72A26.72,26.72,0,0,0,162.72,8Z" transform="translate(-122.64 -6.091)"/>
    <path id="Path_5280" data-name="Path 5280" class="cls-2" d="M235.817,8A26.774,26.774,0,0,0,232,8.3,26.7,26.7,0,0,1,254.9,34.72V49.988h7.634V34.72A26.72,26.72,0,0,0,235.817,8Z" transform="translate(-195.737 -6.091)"/>
    <rect id="Rectangle_506" data-name="Rectangle 506" class="cls-3" width="76.343" height="19.086" transform="translate(1.909 97.337)"/>
    <rect id="Rectangle_507" data-name="Rectangle 507" class="cls-4" width="76.343" height="9.543" transform="translate(1.909 97.337)"/>
    <rect id="Rectangle_508" data-name="Rectangle 508" class="cls-3" width="19.086" height="24.811" transform="translate(30.537 57.257)"/>
    <path id="Path_5281" data-name="Path 5281" class="cls-4" d="M217.543,253.36a22.61,22.61,0,0,0,9.543-2.145V240H208v11.215A22.61,22.61,0,0,0,217.543,253.36Z" transform="translate(-177.463 -182.743)"/>
    <path id="Path_5282" data-name="Path 5282" class="cls-5" d="M150.983,341.806V326.537h13.36V313.8a11.452,11.452,0,0,0-7.831-10.864L135.714,296l-9.543,7.634L116.628,296l-20.8,6.932A11.454,11.454,0,0,0,88,313.8v12.74h13.36v15.269Z" transform="translate(-86.091 -225.383)"/>
    <path id="Path_5283" data-name="Path 5283" class="cls-6" d="M299.819,302.932,279.021,296l-2.813,2.25,18.731,8.741a8.8,8.8,0,0,1,5.077,7.972v11.574h7.634V313.8A11.454,11.454,0,0,0,299.819,302.932Z" transform="translate(-229.399 -225.383)"/>
    <g id="Group_253" data-name="Group 253" transform="translate(13.36 28.628)">
      <path id="Path_5284" data-name="Path 5284" class="cls-3" d="M206.171,120v19.086a19.085,19.085,0,0,1-19.086,19.086h0A19.085,19.085,0,0,1,168,139.086V120a86.58,86.58,0,0,0,19.086,1.909A86.58,86.58,0,0,0,206.171,120Z" transform="translate(-160.366 -120)"/>
      <path id="Path_5285" data-name="Path 5285" class="cls-3" d="M143.634,152a7.634,7.634,0,0,0,0,15.269h38.171a7.634,7.634,0,1,0,0-15.269Z" transform="translate(-136 -144.366)"/>
    </g>
    <path id="Path_5287" data-name="Path 5287" class="cls-6" d="M214.537,297.909l-3.817,13.36-11.451-7.634-11.451,7.634L184,297.909,189.726,296l9.543,7.634L208.811,296Z" transform="translate(-159.189 -225.383)"/>
    <path id="Path_5288" data-name="Path 5288" class="cls-7" d="M231.268,333.726,223.634,328,216,333.726l3.817,7.634L216,366.171h15.268l-3.817-24.811Z" transform="translate(-183.554 -249.749)"/>
    <path id="Path_5289" data-name="Path 5289" class="cls-8" d="M232.21,428.768l-1.122-7.3L220.2,424.738l-1.231,8Z" transform="translate(-185.814 -320.921)"/>
    <path id="Path_5290" data-name="Path 5290" d="M151.025,75.739l-19.494-6.5V65.286a21.059,21.059,0,0,0,8.758-11.961,9.522,9.522,0,0,0,8.419-9.428V28.628a28.628,28.628,0,1,0-57.257,0V43.9a9.522,9.522,0,0,0,8.419,9.428,21.044,21.044,0,0,0,8.758,11.961v3.955l-19.494,6.5A13.348,13.348,0,0,0,80,88.414v29.917h80.16V88.414A13.344,13.344,0,0,0,151.025,75.739Zm5.317,12.675V99.245H146.8V87.794h-3.817v26.72H129.352l-3.476-22.592,2.817-5.634,3.955,2.636,3.989-13.957,13.181,4.394A9.532,9.532,0,0,1,156.343,88.414ZM120.08,80.7l.1-.082,5.31,3.54L122.717,89.7h-5.275l-2.775-5.55,5.31-3.54ZM117.9,93.52h4.359l3.229,20.994h-10.82Zm15.11-19.761-2.6,9.089-7.1-4.737L130,72.754Zm-22.324-11.68c1.4-9.831,17.381-9.774,18.784,0a17.08,17.08,0,0,1-18.784,0ZM140.994,49.3c.04-.525.08-1.048.08-1.582V38.522a5.69,5.69,0,0,1-.08,10.774ZM95.269,43.9a5.718,5.718,0,0,1,3.817-5.375v9.192c0,.534.04,1.057.08,1.582A5.715,5.715,0,0,1,95.269,43.9Zm3.817-17.71v8.36a9.476,9.476,0,0,0-3.817,1.764V28.628a24.811,24.811,0,0,1,49.623,0v7.684a9.476,9.476,0,0,0-3.819-1.765v-8.36l-2.369.59a85.774,85.774,0,0,1-18.624,1.851,85.774,85.774,0,0,1-18.624-1.851ZM102.9,47.714V30.976a96.418,96.418,0,0,0,17.177,1.47,96.419,96.419,0,0,0,17.177-1.47V47.714A17.083,17.083,0,0,1,132.9,59.1c-1.279-8.9-24.327-9.266-25.649,0A17.105,17.105,0,0,1,102.9,47.714ZM120.08,68.708a20.856,20.856,0,0,0,7.634-1.458V69.7l-7.634,6.107L112.446,69.7V67.25A20.856,20.856,0,0,0,120.08,68.708Zm-9.925,4.048,6.693,5.355-7.1,4.737-2.6-9.089Zm-19.813,6.6,13.181-4.394,3.989,13.957,3.955-2.636,2.817,5.634-3.476,22.592H97.177V87.794H93.36V99.245H83.817V88.414A9.532,9.532,0,0,1,90.343,79.36Zm-6.525,23.7H93.36v11.451H83.817ZM146.8,114.514V103.062h9.543v11.451Z" transform="translate(-80)"/>
    <circle id="Ellipse_48" data-name="Ellipse 48" cx="1.909" cy="1.909" r="1.909" transform="translate(28.628 38.171)"/>
    <circle id="Ellipse_49" data-name="Ellipse 49" cx="1.909" cy="1.909" r="1.909" transform="translate(47.714 38.171)"/>
    <ellipse id="Ellipse_50" data-name="Ellipse 50" class="cls-3" cx="15.149" cy="11.929" rx="15.149" ry="11.929" transform="translate(24.811 41.034)"/>
  </g>
  <path id="Path_5291" data-name="Path 5291" d="M223.592,223.549a7.642,7.642,0,0,0,7.634-7.634h-3.817a3.817,3.817,0,1,1-7.634,0h-3.817A7.642,7.642,0,0,0,223.592,223.549Z" transform="translate(-183.512 -164.404)"/>
</svg>
