<svg id="Group_254" data-name="Group 254" xmlns="http://www.w3.org/2000/svg" viewBox="0 0 80.277 118.524">
  <defs>
    <style>
      .cls-1 {
        fill: #92e0c0;
      }

      .cls-2 {
        fill: #48c397;
      }

      .cls-3 {
        fill: #d3a06c;
      }

      .cls-4 {
        fill: #f9e0a6;
      }

      .cls-5 {
        fill: #eabd8c;
      }

      .cls-6 {
        fill: #ececec;
      }

      .cls-7 {
        fill: #b6c1ce;
      }

      .cls-8 {
        fill: #8c95a4;
      }
    </style>
  </defs>
  <g id="student" transform="translate(0 0)">
    <path id="Path_5264" data-name="Path 5264" class="cls-1" d="M145.381,326.227h15.291a3.822,3.822,0,0,0,3.823-3.823V301.947a11.469,11.469,0,0,0-10.046-11.38L133.913,288H118.622l-20.536,2.567a11.468,11.468,0,0,0-10.046,11.38V322.4a3.822,3.822,0,0,0,3.823,3.823h53.518Z" transform="translate(-86.129 -219.191)"/>
    <path id="Path_5265" data-name="Path 5265" class="cls-2" d="M296.888,314.759h7.646V301.947a11.469,11.469,0,0,0-10.046-11.38l-19.444-2.431-3-.136,19.947,7.672a7.644,7.644,0,0,1,4.9,7.135Z" transform="translate(-226.167 -219.191)"/>
    <path id="Path_5266" data-name="Path 5266" class="cls-3" d="M109.42,76.809c-11.468,0-13.38-7.645-13.38-7.645L99.1,66.87a11.466,11.466,0,0,0,4.587-9.175V34.1A26.1,26.1,0,0,1,129.789,8h3.223a26.1,26.1,0,0,1,18.458,7.645h0A11.888,11.888,0,0,1,161.027,27.3V57.7a11.466,11.466,0,0,0,4.587,9.175l3.058,2.294s-1.911,7.645-13.38,7.645Z" transform="translate(-92.217 -6.089)"/>
    <g id="Group_251" data-name="Group 251" transform="translate(11.468 24.848)">
      <path id="Path_5267" data-name="Path 5267" class="cls-4" d="M216.04,272v1.911a7.646,7.646,0,0,0,7.645,7.646h0a7.646,7.646,0,0,0,7.645-7.646V272Z" transform="translate(-195.015 -231.861)"/>
      <path id="Path_5268" data-name="Path 5268" class="cls-4" d="M328.04,144h1.911a7.646,7.646,0,0,1,7.645,7.645h0a7.646,7.646,0,0,1-7.645,7.645H328.04Z" transform="translate(-280.256 -134.443)"/>
      <path id="Path_5269" data-name="Path 5269" class="cls-4" d="M137.6,144h-1.911a7.646,7.646,0,0,0-7.645,7.645h0a7.646,7.646,0,0,0,7.645,7.645H137.6Z" transform="translate(-128.04 -134.443)"/>
      <path id="Path_5270" data-name="Path 5270" class="cls-4" d="M160.04,109.734v15.291a21.025,21.025,0,0,0,21.025,21.025h0a21.025,21.025,0,0,0,21.025-21.025V109.734h-.323a40.242,40.242,0,0,1-20.7-5.734h0a40.237,40.237,0,0,1-20.7,5.734Z" transform="translate(-152.395 -104)"/>
    </g>
    <path id="Path_5271" data-name="Path 5271" class="cls-5" d="M259.154,127.28v13.552c0,12.879-8.4,21.874-19.114,22.841.631.057,1.265.1,1.911.1a21.025,21.025,0,0,0,21.025-21.025V127.452h-.323C261.482,127.452,260.316,127.383,259.154,127.28Z" transform="translate(-201.813 -96.87)"/>
    <path id="Path_5272" data-name="Path 5272" class="cls-6" d="M136.04,357.38V344l26.759,3.823L189.558,344v30.582L162.8,378.4l-26.759-3.823v-17.2Z" transform="translate(-122.66 -261.811)"/>
    <g id="Group_252" data-name="Group 252" transform="translate(1.911 95.568)">
      <path id="Path_5273" data-name="Path 5273" class="cls-4" d="M301.774,400H322.8v7.645a3.822,3.822,0,0,1-3.823,3.823h-17.2a5.734,5.734,0,0,1-5.734-5.734h0A5.734,5.734,0,0,1,301.774,400Z" transform="translate(-246.344 -400)"/>
      <path id="Path_5274" data-name="Path 5274" class="cls-4" d="M109.065,400H88.04v7.645a3.822,3.822,0,0,0,3.823,3.823h17.2a5.734,5.734,0,0,0,5.734-5.734h0A5.734,5.734,0,0,0,109.065,400Z" transform="translate(-88.04 -400)"/>
    </g>
    <path id="Path_5275" data-name="Path 5275" class="cls-7" d="M189.558,456,162.8,459.823,136.04,456v3.823l26.759,3.823,26.759-3.823Z" transform="translate(-122.66 -347.052)"/>
    <path id="Path_5276" data-name="Path 5276" class="cls-8" d="M243.863,470.856l-1.911.273-1.911-.273v3.823l1.911.273,1.911-.273Z" transform="translate(-201.813 -358.359)"/>
    <path id="Path_5277" data-name="Path 5277" d="M152.389,70.549a12.008,12.008,0,0,0,5.96-7.011l.308-1.231-4.073-3.054a9.6,9.6,0,0,1-3.823-7.645V21.214a13.84,13.84,0,0,0-10.52-13.4A27.819,27.819,0,0,0,120.834,0H117.61A28.046,28.046,0,0,0,89.6,28.015V51.607a9.6,9.6,0,0,1-3.823,7.645L81.7,62.309l.308,1.231a12.016,12.016,0,0,0,5.96,7.011A13.4,13.4,0,0,0,80.04,82.757v20.457a5.741,5.741,0,0,0,5.734,5.734h5.734v5.48l28.4,4.058.271.038,28.671-4.1v-5.48h5.734a5.741,5.741,0,0,0,5.734-5.734V82.757A13.4,13.4,0,0,0,152.389,70.549Zm-.1-8.238,1.869,1.4c-.992,1.787-3.794,5.065-10.96,5.092l-13.485-1.686c0-.075.021-.143.021-.22v-.2a23,23,0,0,0,12.655-15.209,9.469,9.469,0,0,0,4.547-1.841v1.959A13.447,13.447,0,0,0,152.29,62.311Zm-32.111,2.676a19.135,19.135,0,0,1-19.114-19.114V32.463a42.2,42.2,0,0,0,19.114-5.4,42.172,42.172,0,0,0,19.114,5.4v13.41A19.135,19.135,0,0,1,120.179,64.987Zm0,3.823a22.793,22.793,0,0,0,5.606-.722,5.73,5.73,0,0,1-11.212,0A22.793,22.793,0,0,0,120.179,68.809Zm22.856-21.352c.036-.526.08-1.049.08-1.585V36.668a5.7,5.7,0,0,1-.08,10.79ZM117.612,3.823h3.224a24.028,24.028,0,0,1,17.107,7.085l.409.409.568.115a10,10,0,0,1,8.018,9.782v13.24a9.465,9.465,0,0,0-3.823-1.766V28.671h-2.234a38.336,38.336,0,0,1-19.718-5.461l-.984-.591-.984.591a38.336,38.336,0,0,1-19.718,5.461H97.242v4.016a9.49,9.49,0,0,0-3.823,1.766V28.015A24.22,24.22,0,0,1,117.612,3.823ZM97.242,36.668v9.205c0,.535.044,1.059.08,1.585a5.7,5.7,0,0,1-.08-10.79ZM86.2,63.714l1.869-1.4a13.441,13.441,0,0,0,5.352-10.7V49.646a9.453,9.453,0,0,0,4.547,1.841A22.991,22.991,0,0,0,110.622,66.7v.2c0,.076.021.145.023.222L97.16,68.805C89.985,68.777,87.185,65.491,86.2,63.714Zm-2.336,39.5V97.48h19.114a3.823,3.823,0,1,1,0,7.645h-17.2A1.913,1.913,0,0,1,83.863,103.214Zm61.164,7.9-22.936,3.278V95.568h-3.823V114.39l-22.936-3.278v-2.164h7.645a7.645,7.645,0,0,0,0-15.291H95.331V84.393l22.936,3.276v4.077h3.823V87.669l22.936-3.276v9.264h-7.645a7.645,7.645,0,0,0,0,15.291h7.645Zm11.468-7.9a1.913,1.913,0,0,1-1.911,1.911h-17.2a3.823,3.823,0,0,1,0-7.645h19.114Zm0-9.557h-7.645V79.985l-28.671,4.1-28.671-4.1V93.657H83.863v-10.9a9.575,9.575,0,0,1,8.372-9.484l19.276-2.408a9.516,9.516,0,0,0,17.338,0l19.276,2.408a9.573,9.573,0,0,1,8.372,9.484v10.9Z" transform="translate(-80.04 0)"/>
    <circle id="Ellipse_46" data-name="Ellipse 46" cx="1.911" cy="1.911" r="1.911" transform="translate(26.759 36.316)"/>
    <circle id="Ellipse_47" data-name="Ellipse 47" cx="1.911" cy="1.911" r="1.911" transform="translate(49.696 36.316)"/>
  </g>
  <path id="Path_5292" data-name="Path 5292" d="M223.6,223.56a7.653,7.653,0,0,0,7.645-7.645h-3.823a3.823,3.823,0,1,1-7.645,0h-3.823A7.653,7.653,0,0,0,223.6,223.56Z" transform="translate(-183.465 -165.523)"/>
</svg>
