<svg xmlns="http://www.w3.org/2000/svg" viewBox="981.863 2430 129.387 151.535">
  <defs>
    <style>
      .cls-1 {
        fill: #4e2a0e;
      }
    </style>
  </defs>
  <g id="Group_88" data-name="Group 88" transform="translate(921.923 -76.087)">
    <path id="Path_3861" data-name="Path 3861" class="cls-1" d="M668,370.311c0-.848.848-1.211,3.028-1.211.848,0,2.18,0,2.543,1.7,0,1.332-2.18,2.907-3.512,2.907C668.969,373.581,668,372.37,668,370.311Zm4.36.363c0-.363-.484-.363-.848-.363a1.524,1.524,0,0,0-1.7,1.7c0,.363.484.363.848.363A1.524,1.524,0,0,0,672.36,370.675Z" transform="translate(-536.367 2188.384)"/>
    <path id="Path_3903" data-name="Path 3903" class="cls-1" d="M668,370.311c0-.848.848-1.211,3.028-1.211.848,0,2.18,0,2.543,1.7,0,1.332-2.18,2.907-3.512,2.907C668.969,373.581,668,372.37,668,370.311Zm4.36.363c0-.363-.484-.363-.848-.363a1.524,1.524,0,0,0-1.7,1.7c0,.363.484.363.848.363A1.524,1.524,0,0,0,672.36,370.675Z" transform="translate(-570.367 2245.384)"/>
    <path id="Path_3862" data-name="Path 3862" class="cls-1" d="M713.152,397.343v-1.332c-.242-.606-.242-1.09,0-1.211h3.028c.484,0,.484.848,0,.848-1.7.363,1.7,2.907-.848,2.907H714C712.667,399.039,712.667,398.555,713.152,397.343Z" transform="translate(-541.75 2222.232)"/>
    <path id="Path_3863" data-name="Path 3863" class="cls-1" d="M690.9,374.411c0-1.211.848-.848,1.7-1.211a1.181,1.181,0,0,1,1.332,1.211c-.484.848-.484,2.059-1.7,2.059C690.9,376.591,690.9,375.259,690.9,374.411Z" transform="translate(-546.387 2217.671)"/>
    <path id="Path_3902" data-name="Path 3902" class="cls-1" d="M690.9,374.411c0-1.211.848-.848,1.7-1.211a1.181,1.181,0,0,1,1.332,1.211c-.484.848-.484,2.059-1.7,2.059C690.9,376.591,690.9,375.259,690.9,374.411Z" transform="translate(-598.387 2206.671)"/>
    <path id="Path_3865" data-name="Path 3865" class="cls-1" d="M697.075,389.2h.484c0,.484-.848.484-.848.848C696.591,389.684,696.591,389.2,697.075,389.2Z" transform="translate(-545.174 2221.05)"/>
    <path id="Path_3867" data-name="Path 3867" class="cls-1" d="M696.448,389.6a.475.475,0,0,0,.484.484H695.6C695.6,389.6,695.963,389.6,696.448,389.6Z" transform="translate(-545.394 2221.134)"/>
    <path id="Path_3868" data-name="Path 3868" class="cls-1" d="M48.717,48.033c-2.162.412-2.882-1.132-3.6-2.162-1.75,2.573-3.706,4.22-6.9,3.088-1.029-.412-1.338-2.985-.823-5.147.1-.412-.412-.1-.412-.1-2.573.206-3.6-.206-4.117-1.956a4.065,4.065,0,0,1,2.265-4.838,7.708,7.708,0,0,1,2.059-1.235,9.873,9.873,0,0,1,2.676-.618c0-3.191.824-4.117,4.323-4.838,1.853-.515,4.015-.926,6.176-1.338-2.882-1.132-5.559-2.573-8.853-1.338a6.45,6.45,0,0,1-1.647.206,7.113,7.113,0,0,0-3.6,1.853c-3.088,2.882-6.073,5.353-8.853,8.338-1.75,1.338-2.471,1.132-3.912-.309-.206-.515-.618-.618-1.132-1.235.515-1.441.721-2.985,1.235-4.426-2.162.412-3.088,1.647-4.735,2.676.1-2.368,2.162-2.47,3.4-3.6-.309-.1-.823.1-1.029-.412,1.647-1.029,3.191-2.059,4.838-2.985-.926-.721-1.544-.206-2.059,0-1.132.824-2.265,1.544-3.294,1.132-3.088-.412-4.941,1.338-7.1,2.573-.618.618-2.059,1.235-1.441,2.676.823,1.132,2.162.823,3.294.823l1.029-.412a.9.9,0,0,1,1.544.206c.1.824-.618.618-1.235,1.132-1.235,1.132-1.647,2.162-.618,3.809.824,1.132,1.75.721,3.088.412,2.162-.412,2.162-2.47,2.882-3.4.309,3.4-2.471,5.559-5.867,4.632-1.441-.515-1.544-2.265-1.647-3.088a6.817,6.817,0,0,1,0-2.059,17.452,17.452,0,0,0-2.265-.412c-1.338-.926-1.75-1.853-.823-3.191a7.613,7.613,0,0,1,4.22-3.6c.823-.1,1.132-.823,1.647-1.029a4.936,4.936,0,0,0-5.25.823,6.045,6.045,0,0,1-7,.206c-1.338-.926-1.235-2.059-.72-3.5-.721-.309-1.235-.926-1.956-1.132C.749,23.534-.178,22.814.028,21.27A4.97,4.97,0,0,1,2.7,17.461a8.308,8.308,0,0,1,5.456.515c.309.1.721.309,1.029.412,1.338-3.5,3.706-2.265,5.97-1.75,0-2.059,1.338-3.5,2.779-5.044,2.059-2.059,5.147-1.647,6.9,1.029.309.1.618.618.823,1.132.515-.206.824-.1,1.029-.412,1.853-.515,2.882-.1,3.4,1.75a29.148,29.148,0,0,1,1.544,5.456A5.863,5.863,0,0,0,37.7,24.872a27.766,27.766,0,0,1,6.588-.309,2.711,2.711,0,0,0-1.853-1.544c-1.338-.926-2.265-2.47-3.809-3.912a3.746,3.746,0,0,1,.1-3.6c.721-.926,1.544-1.853,3.294-1.132a9.7,9.7,0,0,1-2.059-2.059c-2.47-2.985-2.162-4.941-.515-8.338,1.132-1.956,2.882-2.162,5.97-.618.309-.721.926-1.338,1.029-1.647,1.338-2.368,2.882-2.162,4.941-.1A6.611,6.611,0,0,1,53.761,8.2c4.941,1.853,5.044,2.779,3.6,8.647a3.738,3.738,0,0,1,.721.309c2.265,2.47,2.573,2.985.618,5.867a4.544,4.544,0,0,0,.721,5.559,16.026,16.026,0,0,0,3.809,1.853c3.191,1.235,6.279,1.647,8.75,3.706,1.647,1.029,1.75,1.853.309,3.4-2.368-.1-3.6-2.162-5.661-3.4-3.5-2.573-5.867-.618-7.926,1.441a6.752,6.752,0,0,0-1.441,3.912,5.107,5.107,0,0,1-.823,3.294c-1.441,1.544-2.265,1.544-3.294,0a2.682,2.682,0,0,1-1.132-1.235c-1.441,4.735-4.117,8.544-5.867,13.176A15.513,15.513,0,0,1,48.717,48.033Zm-7.411.1a11.659,11.659,0,0,0,3.088-3.706c-.823-1.132-2.368-.1-3.088-1.544,3.088.412,5.764,1.029,8.544,1.235-1.132-1.235-2.985-.721-4.117-1.956-.412-.1.309.1.1-.309.1-.309-1.235,0-.823-1.132a10.5,10.5,0,0,0,3.809.618c.618.618-.309.721,0,1.235.412.1.721.309,1.235.1A5.393,5.393,0,0,1,52.011,39.8a7.266,7.266,0,0,1-2.676-1.441c.309-.721.823-.1,1.132-.823.1-.412-.721-.309-.1-.823.823-.1.823-.1,2.059-2.059-2.471,1.132-4.426,1.956-5.662,4.323,1.338.926,2.779.206,3.6,1.338-1.441.618-2.779-.206-3.809-.618a25.522,25.522,0,0,0-3.912,1.75c.515-1.441,2.367-1.956,3.5-2.676a38.484,38.484,0,0,1,3.5-3.912c-1.544-.206-2.368-1.338-3.912-1.544,2.059,0,3.912,1.544,5.867.618,2.059-1.235,4.323-1.647,5.867-2.676a7.267,7.267,0,0,1-2.676-1.441c-.206-.515-.618-1.441-1.029-1.647-2.162-2.882-5.456-3.706-8.029-5.559-.721-.309-1.029-.412-1.235-.926a5.611,5.611,0,0,0,2.265.515c-.1-.823-1.441-.515-1.132-1.235.618-.618,1.029.412,1.647-.206-1.338-.926-2.676-1.441-3.706-3.088,1.75.721,2.779,2.265,4.941,1.853a15.452,15.452,0,0,1-5.147-3.6,2.143,2.143,0,0,0-3.294,0c-1.235,1.132-.515,2.265.309,3.4,1.853,2.676,4.632,3.809,7.206,5.559,1.338.926,3.294.823,4.118,1.956.1.823-.927.412-.721.926.926.721,1.956,1.132,3.6,2.162q-4.941,0-8.647.309c-2.162.412-3.912,1.75-4.22,3.6.206.515,1.235.1,1.75.721l-1.029.412c-1.956.823-4.015.926-5.97,1.75-2.779,1.75-3.088,2.882-1.338,5.559,1.544.206,2.985-.515,4.838-1.029a4.315,4.315,0,0,1-1.029,2.882,2.075,2.075,0,0,0-.412,3.088A2.03,2.03,0,0,0,41.306,48.136Zm7.617-2.779a4.208,4.208,0,0,0-2.985-.721A2.052,2.052,0,0,0,47.482,46.9C48.409,46.695,48.615,46.077,48.923,45.357Zm7-4.632a13.221,13.221,0,0,1,1.956-6.176c-3.4-1.75-4.22-1.647-5.044.515,1.029.412,2.368.1,2.985.721-1.029,1.647-2.573-.618-3.912.515,1.235.926,2.265.515,3.706,1.029-1.647,1.029-2.779-.206-4.22.412,1.75.721,1.75,1.853,1.647,3.088.1.824.206,1.647,1.235,2.059A3.068,3.068,0,0,0,55.923,40.725ZM26.071,37.019c2.882-2.162,5.456-4.838,8.647-7.617-1.647.206-2.985,1.338-3.912,1.75-2.573,1.441-2.265,1.544-3.4,1.544,2.265-1.544,4.426-3.191,7-4.632l-.309-.1c-1.235-.1-2.368.721-3.5.721a12.933,12.933,0,0,0-2.676.618c-2.162.412-4.529,4.323-4.426,6.382A1.582,1.582,0,0,0,26.071,37.019Zm40.763-3.5c1.956.309,2.676,2.676,5.044,2.779C71.569,34.96,69.408,33.313,66.834,33.519Zm-6.588-.926a7.38,7.38,0,0,0-4.22.412c1.235.1,2.162.823,2.985.721C59.526,33.519,59.629,33.21,60.246,32.593ZM58.7,29.2a6.167,6.167,0,0,1-1.235-7.411c1.544-1.853,1.441-2.676-.412-4.22-.824.1-1.132.823-2.059,0,1.441-2.676,3.4-5.662-.1-8.132-1.441.618-2.059,2.059-2.985,2.47-.412-1.029.1-1.235,0-2.059.618-2.573.927-5.764-1.338-8.235C49.644.888,48.923.579,47.791,1.4c-.926,1.235-2.059,2.059-1.441,3.912.618.618.412,1.029-.412,1.029-.618-.618-1.338-1.75-1.956-2.368-.412-1.029-.926-.823-1.75-.721-2.573.206-4.529,5.559-2.882,7.411.309.1.206.515.206.515,1.441.515,2.265,1.647,3.191,2.47,1.132,1.235,2.059,3.191,4.323,3.706-1.441-2.573-3.706-4.22-5.456-6.073,1.544.206,2.265,1.647,3.809,1.853-1.853-1.544-4.117-3.191-5.662-5.456a2.814,2.814,0,0,1,2.573,1.75,3,3,0,0,0,2.985.721c0,1.235.515,1.853,1.338,2.985.206-1.544-.1-2.882.926-4.529a15.856,15.856,0,0,1-.1,4.426,4.881,4.881,0,0,0,.309,3.4,16,16,0,0,1,1.544,3.4c.1-2.368.309-5.147,1.544-7.1.515,1.853-1.132,4.015.1,6.176,1.029-.412,1.441-1.544,2.162-2.47-.1,1.235-.206,1.544-.824,2.162-1.956,2.059-1.029,4.838.206,7a12.565,12.565,0,0,0,8.544,5.25A18.245,18.245,0,0,1,58.7,29.2ZM11.969,27.96a10.747,10.747,0,0,1,5.044-2.573c.515-.206.823-.1,1.441-.618-.927-.721-2.471-.926-3.088-.412-2.368.721-4.529,1.132-6.485,1.956-.515.206-1.132.823-1.544-.206A1.55,1.55,0,0,1,8.16,26c.1-.309.618-.618.721-.926-1.441.618-3.6-.1-4.323,1.647A2.581,2.581,0,0,0,7.337,28.99C9.19,28.887,10.734,29.093,11.969,27.96Zm11.838-1.132a3.244,3.244,0,0,0-3.6,1.029C21.645,28.372,22.469,27.137,23.807,26.828Zm11.941-.309c-.618-.618-.823-1.132-1.544-1.441-1.853-1.544-3.4-2.882-4.015-5.559a29.1,29.1,0,0,0-1.132-4.529c-.618-.618-1.132-1.235-1.956-1.132A2.536,2.536,0,0,0,25.763,15.4c.206.515.1.824-.412,1.029a3.245,3.245,0,0,1-1.132-2.47c-.721-1.441-2.573-2.985-3.706-3.088-1.235-.1-2.779,1.75-3.294,3.191a5.625,5.625,0,0,0,2.265,1.647c-1.338.309-2.162-.823-3.294,0,.1.824,1.853,1.544,1.338,2.985-2.162-.823-4.22-2.882-6.794-1.338a4.167,4.167,0,0,0,2.985,2.779,2.348,2.348,0,0,1-2.779-.206c-2.573-1.75-7.1-2.676-9.367.1C.44,20.858.543,21.681,1.47,22.4a3.432,3.432,0,0,0,4.22,1.647c.1-.412-.721-.309-.412-1.029a19.929,19.929,0,0,1,8.544,0c4.22.823,8.338,1.544,12.146,3.4a4.214,4.214,0,0,0,1.956.309C27,26,26.277,24.461,24.939,24.769a.8.8,0,0,1-.412-1.029c-.309-1.338-1.338-1.75-2.47-2.162-.926-.721-2.162-.823-3.294-2.059,1.544.206,2.471.926,3.809.618a12.24,12.24,0,0,0-1.235-3.294c2.573,2.985,3.809,7.1,8.235,9.264-1.235-2.059-2.162-4.015-1.647-6.279.721.309.515.618.412,1.029-.1,2.368,1.441,3.809,2.676,5.867a6.126,6.126,0,0,1,.721.309C33.174,26.725,34.409,26.828,35.747,26.519Zm-13.9-.926c-1.956-1.132-3.191.823-4.838,1.029C18.351,27.137,19.689,26.828,21.851,25.593Zm25.734.926c-1.544-1.441-7.206-1.544-9.573-.412C41.2,26.108,44.188,25.7,47.585,26.519ZM12.072,23.534c-1.956-1.132-3.294,0-4.941.1C8.778,24.666,10.219,24.049,12.072,23.534Z" transform="translate(131.272 2566.22) rotate(51)"/>
    <path id="Path_3869" data-name="Path 3869" class="cls-1" d="M652.252,322.382c-.969.121-1.575.363-2.543.484-2.543.484-4.36-1.211-3.391-3.634,1.211-3.391,2.543-6.661,6.177-8.6.121-.363-.242-.606-.485-1.211-.606-2.18.242-4.239,2.3-4.845,2.18-.606,4.118-.848,6.3-1.453.969-.121,2.059.848,2.907,1.09a26.692,26.692,0,0,1,5.693,1.211c-.242-.606-.242-.606-.727-.727a30.362,30.362,0,0,0-15.745-5.087c-4.845.121-7.146,2.544-7.873,7.025,0,1.453-.606,2.665-.727,4.481-.363.848-.848,2.059-2.18,2.059a2.064,2.064,0,0,1-2.3-1.332l-.363-.121c.727-.727-.606-2.18.969-2.543.848.363.121.969.363,1.574.485.121.727.727,1.575,1.09a3.659,3.659,0,0,0,1.09-2.907c.485-3.634,1.332-7.146,5.45-9.326-4.36-1.211-7.388.484-10.174,2.786-3.149,2.18-4.36,5.087-3.876,8.963-1.09-.848-.606-2.18-1.09-3.27-2.18,2.059-1.7,5.571-4.845,7.752,2.18-4.36,4-7.994,6.056-11.991,2.422,0,3.391-2.543,5.208-3.755-6.419,1.817-11.264,5.693-17.683,7.509.363-2.3,2.422-1.453,3.391-2.543-1.7-.606-3.028-2.059-5.208-1.453-1.7.727-5.329-1.09-5.693-2.665-.727-1.7,1.211-4.36,4-4.239A25.185,25.185,0,0,1,625,298.158a2.033,2.033,0,0,0,2.665.484c-.484-1.09-1.09-.848-2.059-.848a9.659,9.659,0,0,1-5.693-2.665c-1.575-1.09-1.575-2.059-.606-3.512,2.907-2.665,6.54-3.27,10.174-2.786,2.665.484,4.6,1.817,6.9,3.149.727-.727,1.09-1.453,1.575-1.817a17.571,17.571,0,0,1,7.752,3.512,26.355,26.355,0,0,0,4.239,4c1.938,1.211,4.118.606,6.3.969-3.149-3.149-7.267-4.724-8.478-8.963,2.059-1.575,2.665-1.817,5.571-.727a1.293,1.293,0,0,0,.848-1.09c.484-2.665,2.665-3.27,4.6-2.059a9.953,9.953,0,0,1,4.36,3.634,15.21,15.21,0,0,0,3.513,3.27,10.238,10.238,0,0,1,3.634,6.662,17.661,17.661,0,0,0,6.056,10.416c1.575,1.09,1.817,2.665,2.786,4,.242.606.363,1.574-.606,1.7-1.09-2.3-3.512-3.27-5.45-4.481-1.09-.848-4,.363-4.6,2.059s-1.453,3.755-.848,5.935c.363,1.574-1.211,4.36-2.907,5.087-1.332.969-1.938.242-3.028-.727-1.575,2.786-3.876,3.755-6.056,3.391C653.1,326.5,652.495,324.32,652.252,322.382Zm4.481,2.18c-.485-2.544-2.059-4.6-1.09-7.146a2.962,2.962,0,0,1-3.028.242,14.244,14.244,0,0,0,6.419-4.239c.363-.848,1.453-1.332,1.332-2.3-.484-1.211-1.574-1.09-2.665-1.938,1.938-.242,3.634.484,5.208.121a17.228,17.228,0,0,0,4.966-2.907c-.242-.606-1.09-.848-1.938-1.211a2.974,2.974,0,0,1-2.543-.969,2.7,2.7,0,0,1-1.575.363,47.859,47.859,0,0,0-6.54.848c-1.453-.121-1.938,1.211-2.18,2.059,0,1.453.848,1.7,1.575,2.059.848.363,1.09.969.727,1.7a6.808,6.808,0,0,0-3.876,1.332c-2.059,1.575-3.149,4.481-4.118,7.025-.485,1.211,1.09,2.3,2.18,1.817.969-.121,2.544-.484,3.028-1.7.727-.727,1.211-.484,1.817.242-1.453,1.332-1.574,2.786-.363,4.6A1.7,1.7,0,0,0,656.734,324.562Zm3.149-3.512c-.969-1.332-1.09-3.27-2.059-4.6-1.938.242-1.453,1.332-.848,2.059a15.684,15.684,0,0,1,1.938,4.966C660.125,322.987,660.609,321.776,659.883,321.049Zm6.9-6.54a3.015,3.015,0,0,1-.848-.363c-.484-1.211-1.211-1.938-1.7-3.028-.606.242-1.09.484-.848,1.09,1.817,2.665,1.938,3.634.727,5.571-1.09-.848-.848-2.665-1.938-3.634-1.817,2.18,1.574,3.391.727,5.571-.969.121-.485-1.09-1.453-1.09-.606.242-.606.242-1.332.969,1.817.242,2.665,1.938,3.512,3.27C667.634,321.049,665.212,317.295,666.786,314.509Zm-5.329-2.422c-3.391,2.543-3.513,2.907-1.211,5.693C660,315.841,661.215,313.9,661.457,312.087Zm5.814-2.543a3.946,3.946,0,0,0-2.3.969,5.558,5.558,0,0,0,1.817,2.665C667.271,311.845,668.6,311,667.271,309.543Zm2.18.363c.848-1.09,2.18-.606,3.513-.606-1.211-1.938-2.422-2.422-4.724-1.332C668,308.817,668.24,309.422,669.451,309.907ZM666.3,294.282a1.462,1.462,0,0,0-.848,1.09c-.727-.727-1.09-.848-.969-1.332-.242-1.938-1.575-3.512-2.907-4.966a7.569,7.569,0,0,0-3.634-2.786c-.969.121-1.817-.242-2.18.606-.727.727-.606,1.7-.242,1.817,1.817,1.7,2.422,3.755,3.755,5.208,2.059,2.18,4.239,4,6.3,6.177,1.211,1.938,3.149,3.149,5.693,4.118C669.693,300.459,668.967,297.31,666.3,294.282Zm-35.73,8.357c-.484-1.09-1.938-1.211-3.028-2.059-2.543-.969-5.208-2.543-8.115-2.665a3.827,3.827,0,0,0-3.876,1.332c.969,1.332,1.332,2.907,3.149,1.7a2.577,2.577,0,0,1,2.665.606c2.18,1.817,4.6,1.7,7.388,1.817A1.4,1.4,0,0,0,630.572,302.64Zm2.422-1.453c-1.7-.606-2.665-2.907-4.724-1.332C629.724,299.854,631.3,301.913,632.994,301.186Zm2.907-1.332c-.969-1.332-2.18-1.817-4.36-1.211C633.116,299.733,634.448,301.307,635.9,299.854Zm6.661-6.056c1.211.484,1.575,2.059,2.907,2.543.727.727,1.453,2.422,3.391,1.332-4-2.059-5.814-6.056-10.658-5.935,2.422,2.422,2.665,6.783,7.025,6.54C643.9,296.7,642.684,295.857,642.563,293.8Zm-1.211,4.36.121-.484c-.363-.121-.848-.363-1.211-.484a1.463,1.463,0,0,0-1.09-.848c-1.817-1.7-2.907-3.512-4.845-4.724-3.149-1.7-10.3-3.028-12.717-.606-.727.727-1.938,1.211-1.332,2.3,0,1.453.848,1.7,1.575,2.059,2.907,1.09,5.814,1.211,8.115,2.544a1.238,1.238,0,0,0,1.211-.484c-.363-1.574-3.391-1.332-3.391-3.634C632.268,295.615,636.265,299.006,641.352,298.158Zm14.655-5.814a6.715,6.715,0,0,0-7.146-2.665c0,1.453,1.09,2.3,1.7,3.028,1.817,2.665,5.329,2.543,7.994,4A40.64,40.64,0,0,0,656.007,292.344Z" transform="translate(-554.733 2247.533)"/>
    <path id="Path_3870" data-name="Path 3870" class="cls-1" d="M687.455,360.778a9.621,9.621,0,0,0-5.087-4.36,45.512,45.512,0,0,0-10.78-1.7,10.489,10.489,0,0,1-5.814-2.18c-2.18-1.817-2.18-4.239.121-6.661-.848-.363-1.453-1.09-2.3-1.332a3.155,3.155,0,0,1-1.332-1.453c-.485-1.211-.848-2.786.242-3.27,1.332-.969,2.786-.848,3.633.484.727.727,1.7.606,2.059.848.727-.727-.242-.606.121-1.453,1.7.606,2.422,2.3,4.481,3.149-.363-1.575-.121-3.391-1.817-4-1.211-.484-.969-1.332-1.453-2.422.969-.121.727.727,1.7.606-.484-2.544-2.059-4.6-2.543-7.146,1.817,2.665,2.543,5.814,3.755,9.084a18.4,18.4,0,0,0,5.329,8.721,9.448,9.448,0,0,1-1.09-3.27c-.363-1.575-1.332-2.907-.606-4.6.363-.848.484-1.211-.242-1.938-1.575-2.059-1.817-4-2.907-6.3,1.574,1.09,1.7,3.028,2.786,4,.606-.242.363-.848,0-1.453a12.58,12.58,0,0,1,.242-7.025c.606-2.665-2.3-5.208-4.845-4.724-1.938.121-4,.363-4.36,2.665-.242,1.817-.485,3.634.363,5.329-1.453,0-2.3-1.332-3.028-2.059a3.532,3.532,0,0,0-3.512-.848c-1.574.363-1.574,1.817-2.059,3.028-.242,3.27.606,5.935,5.45,6.9.484.121.484.121.727.727-.848,1.09-2.543.484-3.755,0-3.876-2.422-4.481-7.025-2.543-11.022,1.211-1.938,3.028-1.7,5.45-.363.242.606,1.09.848,1.817,1.7-.363-4,.969-6.3,4.481-6.9,3.149-.727,5.087.484,7.267,3.755.606-.242.606-.242.969-.121,3.755-.969,5.935.848,5.935,4.6a12.881,12.881,0,0,1-1.453,5.208,3.652,3.652,0,0,0-.848,3.512c.727-.727,1.332-.969,1.574-1.817,3.513.848,3.755,1.453,3.028,4.481a51.944,51.944,0,0,0-.969,8.721,8.145,8.145,0,0,0,2.3,6.54c1.574,2.059,3.028,3.512,2.665,6.783A4.449,4.449,0,0,1,687.455,360.778Zm-.727-3.149c.727.727.606,2.18,2.3,2.786C688.424,358.234,688.424,358.234,686.728,357.629Zm-7.509-5.329c-1.09-.848-1.817-1.7-2.665-.606a7.59,7.59,0,0,1-1.938.242c-2.3-.363-4.724-1.332-7.025-1.7,1.453-1.332,3.27.242,4.6-.606-1.211-.484-2.059-.848-2.907-1.09l.121-.363c2.665.484,4.845.969,7.63,1.453-.121-.969-.242-1.938-1.09-2.3-3.876-1.09-7.63-1.453-10.9,1.09a7.816,7.816,0,0,0,5.329,4.845c1.453,0,2.665.484,4.6.363s4.481.727,7.025,1.7C680.915,354,679.825,353.026,679.219,352.3Zm5.208-2.3c.242-3.27.242-7.025.969-10.174,0-1.453.242-1.817-1.09-2.3-1.211.484-1.575,2.786-3.391,2.543-1.211-1.938-1.09-3.27.121-5.208,2.422-3.876,2.422-6.177.242-9.447-3.27-.242-5.814,2.543-5.208,6.177a16.845,16.845,0,0,1,.727,6.9c-.485,2.665.363,5.329,1.817,7.873.727-.606,1.7-1.817,2.422-2.422-2.543,5.208-.848,9.689,4.481,10.78A6.314,6.314,0,0,1,684.427,350Zm-20.711-9.811c-.848,1.09-.848,1.09-.242,1.817.969,1.332,2.3,2.786,3.876,2.422s2.665.484,4.118.606c.848.363,1.09.848,1.817.242C671.588,340.793,666.744,342.247,663.716,340.188Z" transform="translate(-541.206 2184.755)"/>
    <path id="Path_3871" data-name="Path 3871" class="cls-1" d="M2.864,0C2.452,3.088,1.217,5.456.084,8.235-.43,6.485,1.525,1.544,2.864,0Z" transform="translate(117.482 2610.958) rotate(51)"/>
    <path id="Path_3872" data-name="Path 3872" class="cls-1" d="M2.368,0A16.148,16.148,0,0,1,0,7.206C.618,4.632.721,2.265,2.368,0Z" transform="translate(115.032 2609.077) rotate(51)"/>
    <path id="Path_3873" data-name="Path 3873" class="cls-1" d="M1.853,0c0,2.059-.1,4.426-1.853,5.764C.72,4.015.309,1.853,1.853,0Z" transform="translate(118.241 2613.367) rotate(51)"/>
    <path id="Path_3874" data-name="Path 3874" class="cls-1" d="M.886,0A13.012,13.012,0,0,1,.062,5.353C-.041,3.706-.144,1.647.886,0Z" transform="translate(117.205 2621.411) rotate(51)"/>
    <path id="Path_3875" data-name="Path 3875" class="cls-1" d="M1.473,0A7.96,7.96,0,0,1,.032,3.912C-.174,2.162.65,1.235,1.473,0Z" transform="translate(113.16 2608.565) rotate(51)"/>
    <path id="Path_3876" data-name="Path 3876" class="cls-1" d="M1.177,0A9.188,9.188,0,0,1,.147,3.706,3.481,3.481,0,0,1,1.177,0Z" transform="translate(117.81 2618.56) rotate(51)"/>
    <path id="Path_3877" data-name="Path 3877" class="cls-1" d="M4.838,0c-.1.309.618.618,0,1.235C2.985,1.75,1.647,3.294,0,4.22.926,1.75,3.088,1.338,4.838,0Z" transform="translate(125.211 2604.146) rotate(51)"/>
    <path id="Path_3878" data-name="Path 3878" class="cls-1" d="M715.553,390.885a36.854,36.854,0,0,0-6.783-4.6,9.065,9.065,0,0,1-3.391-1.817c-1.7-1.211-3.391-2.059-5.087-3.391a27.77,27.77,0,0,1-7.63-7.873c-2.543-4.239-4-8.721-2.786-13.323,1.09-4.239,2.543-8.478,5.693-11.749a89.118,89.118,0,0,1,12.475-10.174c2.3-1.938,5.087-3.876,7.025-6.3a36.546,36.546,0,0,0,4.118-6.177,12.165,12.165,0,0,0,2.3-5.208c.484-1.09.606-2.18.969-3.149.484-1.09.848-1.7,1.938-.969-.121,1.09-.848,1.332-1.332,2.422a16.088,16.088,0,0,1-3.27,7.994c-.848,1.7-2.422,3.028-2.665,5.208-1.574,1.332-2.786,2.665-4.36,4a.356.356,0,0,1,.363.363c1.574-1.332,3.028-2.3,4-4,3.27-4.118,5.814-8.478,6.661-13.929.363-.363.727-.363,1.453-.606-.121.727-.121,1.453-.242,2.18.727.484.606,1.09.969,1.938a48.265,48.265,0,0,0,2.3,6.661c.363.363.606,1.09,1.7,1.211-2.786-4.966-4.481-10.537-3.633-12.233-.484,1.453,1.332,1.575,1.574,3.028.606,5.814,3.028,10.416,7.873,13.686l.121.121v2.786a15.348,15.348,0,0,0-1.332-1.575l-.363.363c.606.848,1.09,1.7,1.7,2.543v12.233a34.955,34.955,0,0,0-.484-3.512,65.015,65.015,0,0,0-1.09-8.115c-.848-2.3-2.907-3.876-4.239-5.814-.363-.363.363.363.363-.363-1.332-1.574-1.817-3.755-3.876-5.087.242,1.453.363,3.27,1.817,4.118.727.363.242,1.09.606,1.453a32.863,32.863,0,0,1,4.118,14.534,64.164,64.164,0,0,1,0,8.357c-.484,4.966-2.665,9.932-4.845,14.413-1.7,3.149-3.755,5.45-5.45,8.236a23.436,23.436,0,0,0-2.786,6.661,1.29,1.29,0,0,0,1.574-.969c.606-2.18,2.059-3.391,3.634-4.724a41.269,41.269,0,0,0,9.447-17.32,25.561,25.561,0,0,0,1.09-5.935V361.7h0c-2.059,7.025-5.087,13.323-9.932,18.652,4-3.634,7.873-7.873,9.932-13.081v1.817c-.121.242-.242.363-.363.606a43.324,43.324,0,0,1-6.54,9.205c-2.786,2.665-4.845,5.693-8.6,6.9a3.737,3.737,0,0,1-.606,2.18c1.09.121,1.574-.969,1.938-1.332,3.513-2.907,7.025-5.571,9.811-8.963a36.5,36.5,0,0,0,4.239-5.693v2.543c-.727,1.453-1.575,2.786-3.149,3.27-.727.242-1.211,1.332-1.575,2.059a25.115,25.115,0,0,0-3.513,3.633,12.086,12.086,0,0,0,3.028-1.574c1.09-.606,1.7-2.422,3.512-2.544a.356.356,0,0,0,.363-.363,4.09,4.09,0,0,1,1.575-2.665v3.028h0l-.121.121c-1.211,1.332-2.059,2.665-3.634,3.633a1.963,1.963,0,0,0-1.938.969c-2.18.484-3.755,1.817-5.935,2.422a1.236,1.236,0,0,0-1.211.969c2.543-.121,4.118-1.453,6.419-2.665-.363.727-1.211.969-1.575,2.059a20.114,20.114,0,0,0,4.481-1.817c1.211-1.09,2.422-1.938,3.512-2.907v1.453a8.486,8.486,0,0,1-1.211.969c0,.363,0,.363.363.363a2.638,2.638,0,0,1,.969-.606v.727h0a4.126,4.126,0,0,1-2.907,1.09c-.727,0-1.09.606-1.575.969a11.373,11.373,0,0,0,4.36-.727v1.453a15.863,15.863,0,0,1-3.391,0c-5.45-.121-10.658,1.575-15.745,3.27a35.367,35.367,0,0,1,4,8.357C719.065,396.941,716.764,394.64,715.553,390.885Zm4.6-1.817a75.455,75.455,0,0,1-5.329-5.571l-.363.363c1.332,1.211,1.575,3.028,2.543,4.239-.848.606-.727,0-1.453-.121.363.727.242,1.817,1.211,2.665A22.715,22.715,0,0,1,720.155,389.068Zm3.149,0c.484-.727-1.332-.484-.242-1.09-1.09-.484-1.574.969-2.665,1.575C721.851,389.674,722.577,388.947,723.3,389.068ZM708.649,384.1c-1.09-.484-2.422-.606-3.512-1.453.606,1.211,7.146,4.966,8.6,5.087C712.04,386.646,710.708,384.708,708.649,384.1Zm5.693.848a60.62,60.62,0,0,0-7.752-6.9c-2.059-1.575-4-3.634-6.056-5.571-4-4-4.239-8.721-2.422-13.565.484-1.817.242-3.27,1.211-4.966a20.466,20.466,0,0,0-2.422,11.022,13.341,13.341,0,0,1-.242,2.18c.727,4.36,3.391,7.146,6.3,9.932,2.3,2.059,4.724,4,7.388,6.056,1.332.848,2.665,2.059,3.755,2.907C714.584,385.677,714.7,385.314,714.341,384.95Zm6.9-4.481c1.817-3.876,4.6-6.783,6.3-10.3.848-1.7,2.059-3.391,2.3-5.571a20,20,0,0,0,2.3-9.932c0-3.634-.121-7.267-.484-10.9a44.414,44.414,0,0,0-2.786-9.689c-.242-.727-1.817-.484-1.7-1.938-.242,3.27-.121,5.814,1.09,8.478.242-2.18-.727-4.36-.484-6.54a47.064,47.064,0,0,1,1.817,7.388c-.363-.363-.242-.727-.606-.727v.363c-.121,1.09.484,2.907.121,3.27-.727.606-.484,1.09-.484,1.817.727.121.484-.727.848-.969a10.061,10.061,0,0,1-.363,4.724,30.8,30.8,0,0,0-.848,5.693,61.511,61.511,0,0,1-2.665,13.929,62.779,62.779,0,0,1-3.149,7.267c-.121,1.09-.848,1.332-1.575,2.059a63.647,63.647,0,0,0,6.54-37.789c-1.211.969-1.211.969-.606,2.907-.727.242-.484,1.332-.969,2.059-1.7,7.146-2.665,13.929-4.36,20.953a13.562,13.562,0,0,0-.363,7.63c0,.363-.121.727-.485.727-.727-.484-.606-1.453-.848-2.3a29.459,29.459,0,0,1,1.09-8.236,59.877,59.877,0,0,0,2.786-11.385c.727-4.6,2.3-9.205,2.3-13.929a3.353,3.353,0,0,1,.121-1.09,28.065,28.065,0,0,0-1.938,5.329c-.606,3.149-2.3,5.935-3.634,8.72-2.3,5.571-4.239,11.264-3.755,17.8a32.243,32.243,0,0,0,2.907,11.506c0,.363,0,.363-.485,1.09a15.867,15.867,0,0,1-1.453-3.391,36.151,36.151,0,0,1-1.7-13.929,37.476,37.476,0,0,1,2.786-10.658c1.453-3.512,3.149-7.025,4.6-10.779.969-3.149,2.422-6.3,2.3-9.568.363-.363,0,.363.363.363.848-1.332.484-1.453.363-4.36-.242-.727-.969-1.575.242-2.18.363-.363.727,0,1.09-.242a25.063,25.063,0,0,1-2.543-7.873c-.363,0,0-.727-.606-.727-.242,2.907-2.3,5.208-2.544,8.115-.121,1.817-1.7,3.512-2.907,4.845-.363.363-.363.363-.363.727-2.543,3.755-5.935,6.056-9.084,8.963-1.575,1.7-3.876,2.543-5.087,4.239a28.921,28.921,0,0,0-4.6,7.146c2.665-5.208,7.267-8.357,12.233-11.627-1.211,2.059-3.513,2.907-5.087,4.239a3.027,3.027,0,0,0-1.7,2.786c3.634-3.634,8.478-6.177,11.749-10.174,3.27-4.118,6.177-8.115,7.994-13.081a2.967,2.967,0,0,1,.969,1.938,10.594,10.594,0,0,1-.969-1.211c-.484,1.09-.969,2.059.121,3.27a27.112,27.112,0,0,0-1.211,4.966,13.184,13.184,0,0,1-2.544,8.115c-1.211,1.7-2.18,3.755-3.755,5.45a10.08,10.08,0,0,1-1.938,2.059c-1.938.969-2.786,3.028-3.634,4.724a28.573,28.573,0,0,0-2.422,10.658c-.242,3.27.484,6.177,2.907,8.236a40.383,40.383,0,0,1-1.211-7.025,7.626,7.626,0,0,1,2.059-7.025c.363-.727.848-.969,1.817-.606a33.642,33.642,0,0,0-1.453,4.6.916.916,0,0,1-.121.484,9.823,9.823,0,0,0,.242,4.966,22.037,22.037,0,0,0-.242-4.966v-.121a.445.445,0,0,1,.121-.363,9.023,9.023,0,0,1-.121-3.634,8.109,8.109,0,0,0-1.938,5.935c.363,3.634.848,7.267,2.3,10.3,1.332,1.938,1.817,4.481,3.391,6.056.969.848.485,2.18,1.575,3.028A24.708,24.708,0,0,1,721.245,380.469Zm-5.814.242a33.1,33.1,0,0,0-4.118-6.54c-2.665-3.149-3.028-6.783-2.665-10.779a72.638,72.638,0,0,1,2.18-8.478,40.376,40.376,0,0,1,4.239-6.54c.363-.363.484-.727.121-1.453,2.543-.121,7.752-9.811,7.63-13.444a22.572,22.572,0,0,0-2.18,4.118c-1.7,2.422-4,4-5.935,5.935-2.422,2.665-5.45,4.6-7.509,7.267-2.422,3.028-4.481,5.814-5.571,9.689-.606,2.907.242,5.087,1.09,7.752.242.727.969,1.938,1.211,2.665.848,2.665,2.786,4.6,5.208,6.3a29.465,29.465,0,0,1-3.634-7.63A17.226,17.226,0,0,1,703.8,364a3.611,3.611,0,0,1,2.907-3.755c-.363,4-.363,7.994,1.09,11.627,1.817,4.118,4.845,6.54,7.388,9.69C715.795,381.075,715.432,381.075,715.432,380.711Zm-14.776-4.239c-1.332-1.211-2.3-2.786-3.634-4.239-1.7-1.938-1.817-4.481-1.938-6.662a29.16,29.16,0,0,1,3.755-14.171c1.211-2.059,2.907-4.118,4.118-6.177a19.043,19.043,0,0,0-4,3.634,27.859,27.859,0,0,0-4.845,13.686c-.727,4.239.727,8.357,3.634,12.233a10.081,10.081,0,0,1,2.3,3.149,7.168,7.168,0,0,0,4.481,2.907A47.028,47.028,0,0,0,700.655,376.472Zm-7.63-7.873a3.313,3.313,0,0,1-.485-3.27c-.727.363-1.211.969-.848,1.332,1.332,4.845,3.149,8.963,7.267,12.233a2.293,2.293,0,0,0,.727.484h.727C697.022,376.23,695.568,372.112,693.025,368.6Zm13.444,7.388a.356.356,0,0,0-.363.363,2.741,2.741,0,0,0,2.059,1.332C707.8,377.2,707.074,376.714,706.469,375.988Zm-4.118-6.54a18.772,18.772,0,0,1-1.575-7.388,17.337,17.337,0,0,1,2.422-7.025c2.059-3.028,4.239-6.54,7.267-8.478a7.591,7.591,0,0,0,2.786-3.028c-1.09.242-1.938,1.211-3.028,1.938a62.935,62.935,0,0,0-9.568,10.053,8.071,8.071,0,0,0-1.211,5.693,20.529,20.529,0,0,0,3.028,11.506A7.591,7.591,0,0,0,705.5,375.5C704.167,373.565,703.562,371.385,702.351,369.447Zm-3.634-7.994c-1.332,2.786-.363,7.63,2.059,9.2C698.838,367.994,698.717,364.724,698.717,361.453Zm7.267-.363c-2.665,1.211-1.575,5.693.606,9.084C705.379,367.146,705.621,364.239,705.984,361.09ZM696.9,348.736c-4.724,3.876-5.814,9.205-6.419,15.382C691.692,358.3,693.267,353.1,696.9,348.736Zm-3.149,11.991c-.242-.727-.727.242-1.09-.484,0,.727-.484,1.453-.242,2.18C692.9,361.7,692.54,360.969,693.751,360.727Zm24.708-15.261a5.072,5.072,0,0,0-2.059,3.028A5.479,5.479,0,0,0,718.459,345.466Zm-16.835-1.453a4.786,4.786,0,0,0-2.422,2.665A4.7,4.7,0,0,0,701.624,344.012Zm5.571-1.7c-1.09-.121-1.09-.121-2.3,1.211A3.341,3.341,0,0,0,707.2,342.317Zm1.7-3.149c-1.817.242-3.028,1.938-4.239,2.907A9.9,9.9,0,0,0,708.891,339.168Zm2.059-1.938c-.727.606-1.938.969-1.938,1.938A9.785,9.785,0,0,0,710.95,337.23Zm8.721-.727c-.363.727-1.211,1.332-1.574,2.059C719.186,338.32,719.186,338.32,719.671,336.5Z" transform="translate(-546.695 2205.557)"/>
    <path id="Path_3879" data-name="Path 3879" class="cls-1" d="M710.758,383.725c-.969-1.211-.848-2.907-2.18-3.755.121-1.09-.969-1.938-.121-3.27a63.373,63.373,0,0,0,3.876,8.721l-.363.363C711.364,385.3,711.121,384.088,710.758,383.725Z" transform="translate(-542.748 2218.41)"/>
    <path id="Path_3880" data-name="Path 3880" class="cls-1" d="M705.5,375.8c1.453.121,1.332.848,1.7,1.575.606,1.09.848,2.18,1.938,2.665-.121,1.817,1.211,3.028.969,4.845C709.012,381.614,707.075,378.828,705.5,375.8Z" transform="translate(-543.304 2218.22)"/>
    <path id="Path_3881" data-name="Path 3881" class="cls-1" d="M696.8,370.9a33.175,33.175,0,0,0,4.6,8.721A31.761,31.761,0,0,0,696.8,370.9Z" transform="translate(-545.141 2217.185)"/>
    <path id="Path_3882" data-name="Path 3882" class="cls-1" d="M700.7,373a34.431,34.431,0,0,1,4.239,9.447C703.122,379.419,700.7,374.09,700.7,373Z" transform="translate(-544.317 2217.628)"/>
    <path id="Path_3883" data-name="Path 3883" class="cls-1" d="M703,374.1a27.7,27.7,0,0,0,3.633,7.63A29.46,29.46,0,0,0,703,374.1Z" transform="translate(-543.832 2217.861)"/>
    <path id="Path_3884" data-name="Path 3884" class="cls-1" d="M717,378.3c1.453.121,2.665,2.786,2.543,4.6A43.492,43.492,0,0,1,717,378.3Z" transform="translate(-540.875 2218.748)"/>
    <path id="Path_3885" data-name="Path 3885" class="cls-1" d="M713.9,379.5c1.7.848,1.574,3.028,2.543,4.239C714.99,382.891,714.384,381.075,713.9,379.5Z" transform="translate(-541.53 2219.001)"/>
    <path id="Path_3886" data-name="Path 3886" class="cls-1" d="M716.2,379.8a7.9,7.9,0,0,0,2.18,3.755C717.9,382.1,717.29,380.527,716.2,379.8Z" transform="translate(-541.044 2219.064)"/>
    <path id="Path_3887" data-name="Path 3887" class="cls-1" d="M719.1,377.6a4.487,4.487,0,0,0,1.211,3.391A5.083,5.083,0,0,0,719.1,377.6Z" transform="translate(-540.435 2218.6)"/>
    <path id="Path_3888" data-name="Path 3888" class="cls-1" d="M721.823,377.5c.242,1.09,1.332,1.938.848,3.028C722.308,379.8,721.339,378.953,721.823,377.5Z" transform="translate(-539.885 2218.579)"/>
    <path id="Path_3889" data-name="Path 3889" class="cls-1" d="M725.4,377c1.817.484.606,1.817,1.211,2.665C725.642,379.18,725.642,378.09,725.4,377Z" transform="translate(-539.101 2218.473)"/>
    <path id="Path_3890" data-name="Path 3890" class="cls-1" d="M723.5,378a7.357,7.357,0,0,1,1.938,1.938C724.106,379.817,723.863,378.727,723.5,378Z" transform="translate(-539.503 2218.684)"/>
    <path id="Path_3891" data-name="Path 3891" class="cls-1" d="M720.628,381.3c.969,1.211.969,1.211.485,2.18C720.871,382.753,720.144,382.39,720.628,381.3Z" transform="translate(-540.143 2219.381)"/>
    <path id="Path_3892" data-name="Path 3892" class="cls-1" d="M707.3,383.4a6.7,6.7,0,0,1,1.211,1.938C707.179,384.853,707.542,384.248,707.3,383.4Z" transform="translate(-542.924 2219.825)"/>
    <path id="Path_3893" data-name="Path 3893" class="cls-1" d="M714.559,385.6c-.484.727-.484,1.09.242,1.453C715.286,386.327,714.559,386.327,714.559,385.6Z" transform="translate(-541.462 2220.29)"/>
    <path id="Path_3894" data-name="Path 3894" class="cls-1" d="M723.163,372.769a2.078,2.078,0,0,1,1.938-.969c-.727.242-1.211,1.332-2.3,1.211A.249.249,0,0,0,723.163,372.769Z" transform="translate(-539.65 2217.375)"/>
    <path id="Path_3895" data-name="Path 3895" class="cls-1" d="M710.038,336.349c2.3-1.574,3.512-3.633,4.6-6.54.363.363.363-.363.727.121-1.09,4.239-4.239,6.54-7.267,8.721A7.032,7.032,0,0,1,710.038,336.349Z" transform="translate(-542.755 2208.496)"/>
    <path id="Path_3896" data-name="Path 3896" class="cls-1" d="M723.121,353.33c.606-2.422.121-5.087.363-7.63.363,0,.363.363.242.727-.242,2.907.242,5.814-.363,8.357a1.269,1.269,0,0,1-.363.727A4.52,4.52,0,0,0,723.121,353.33Z" transform="translate(-539.608 2211.863)"/>
    <path id="Path_3897" data-name="Path 3897" class="cls-1" d="M720.153,338.8a7.509,7.509,0,0,0-.242,3.27C720.758,341.1,720.032,339.89,720.153,338.8Z" transform="translate(-540.273 2210.406)"/>
    <path id="Path_3898" data-name="Path 3898" class="cls-1" d="M723.432,342.7a3.686,3.686,0,0,0,.121,2.543C723.917,344.275,723.311,343.427,723.432,342.7Z" transform="translate(-539.556 2211.23)"/>
    <path id="Path_3899" data-name="Path 3899" class="cls-1" d="M723.08,353.7c0,.727-.848,1.7-.242,2.907C722.6,355.517,723.686,354.548,723.08,353.7Z" transform="translate(-539.688 2213.553)"/>
    <path id="Path_3900" data-name="Path 3900" class="cls-1" d="M707.807,345.2c-.121,1.817-2.059,2.665-2.907,4.118C705.142,347.5,707.08,346.532,707.807,345.2Z" transform="translate(-543.43 2211.758)"/>
    <path id="Path_3901" data-name="Path 3901" class="cls-1" d="M710.086,343.3c-.727.606-1.332,2.422-2.786,2.3A8.34,8.34,0,0,1,710.086,343.3Z" transform="translate(-542.924 2211.356)"/>
  </g>
</svg>
