<svg xmlns="http://www.w3.org/2000/svg" viewBox="2924.285 12 166.715 40.246">
  <defs>
    <style>
      .cls-1 {
        fill: #dcdcdc;
        font-size: 26px;
        font-family: Almaq-Refined, Almaq Refined;
        letter-spacing: 0.1em;
      }

      .cls-2 {
        fill: #f77e0b;
      }

      .cls-3 {
        fill: #4e2a0e;
      }
    </style>
  </defs>
  <g id="Group_109" data-name="Group 109" transform="translate(2780)">
    <text id="ALIMENTE" class="cls-1" transform="translate(189 43)"><tspan x="0" y="0">ALIMENTE</tspan></text>
    <g id="Group_52" data-name="Group 52" transform="translate(10 9)">
      <g id="Lc7BEb.tif" transform="translate(134.285 3)">
        <path id="Path_650" data-name="Path 650" class="cls-2" d="M67.2,30.623c-2.046,4.625-6.294,9.079-12.689,9.558C37.423,41.462,34.371,23.276,35.084,21c.421-1.35,1.415-.843,2.535-.508,2.677.8-1.358-8.521,6.4-18.223C49.762-4.91,45.262,7,52.867,9.717c2.956,1.055,2.922-3.5,3.114-4.088,1.669-5.144,5.737,4.938,7.395,12.93C64.576,24.348,70.408,23.381,67.2,30.623Z" transform="translate(-34.99 0)"/>
      </g>
      <g id="Group_50" data-name="Group 50" transform="translate(138.793 20.057)">
        <path id="Path_651" data-name="Path 651" class="cls-3" d="M99.911,59.2a.093.093,0,0,0-.006-.036C99.908,59.175,99.908,59.186,99.911,59.2Z" transform="translate(-75.344 -49.726)"/>
        <path id="Path_652" data-name="Path 652" class="cls-3" d="M99.445,57.983l0,.008Z" transform="translate(-75.09 -49.075)"/>
        <path id="Path_653" data-name="Path 653" class="cls-3" d="M69.624,47.562c.132-.253-.537-1.532-.43-2.064a5.621,5.621,0,0,1,1.026-1.813c.643-.98,2.1-2.911,1.164-4.16-1.2-1.6-1.214,1.127-1.414,1.926a3.018,3.018,0,0,1-2.8,2.508,3.8,3.8,0,0,1-3.021-1.537,3.908,3.908,0,0,1-.912-2.009c-.056-.4.288-1.946-.226-2.228-1.225-.672-1.323,2.47-1.164,3.036a12.232,12.232,0,0,0,2.184,3.694c-2.922,2.137-6.42.234-9.536-.169-2.946-.381-5.4,1.319-8.195,1.238-.472-.014-.922-.669-1.212.048-.187.461.433,1.035.769,1.25,1.065.681,2.726.094,3.832-.2-.813.933-.147,2.06-.557,3.068-.352.866-1.151,1.143-1.576,2.06-.2.438-.719,2.354-.368,2.621.988.749,1.682-1.823,2.3-2.149-.224.818-.132,5.906,1.547,3.806.73-.913-.338-2.044,1.228-2.838a5.945,5.945,0,0,1,2.87-.329c.747.036,4.843.143,5.188.841.563,1.138-4.523,4.1-.664,3.179,1.411-.336,1.439-1.873,2.459-2.3.851-.352,1.768.591,2.329,1.234.53.607,1.324,2.227,2.26.91.806-1.133-.981-2.244-1.381-3.083-.732-1.534.072-3.231.993-4.543.678-.966.806-1.07,1.853-1.071C68.855,48.492,70,49.329,69.624,47.562Zm-1.736-.746c-2.185-1.19-5.191,5.591-4.721,6.862-3.027-1.694-9.425-2.412-12.515-.665.125-.815.332-1.89-.91-1.644.788-.916.04-2.322.7-3.345.353-.545,3.291-1.781,2.18-2.345,2.818.139,5.387,1.722,8.254,1.478.851-.073,6.215-1.149,4.625-2.758a3.657,3.657,0,0,0,2.937.118,3.6,3.6,0,0,0-.037,2.661A3.038,3.038,0,0,0,67.889,46.816ZM69.1,45.169a.033.033,0,0,1-.012.007l.045-.045a.229.229,0,0,1-.032.039Zm-.3,2.916a.094.094,0,0,0,.006.018s0,.02-.005-.018Z" transform="translate(-45.057 -38.091)"/>
      </g>
    </g>
  </g>
</svg>
