<svg xmlns="http://www.w3.org/2000/svg" viewBox="0 0 84.128 118.524">
  <defs>
    <style>
      .cls-1 {
        fill: #f9e0a6;
      }

      .cls-2 {
        fill: #d3a06c;
      }

      .cls-3 {
        fill: #b27946;
      }

      .cls-4 {
        fill: #ececec;
      }

      .cls-5 {
        fill: #b6c1ce;
      }

      .cls-6 {
        fill: #fbc3c6;
      }

      .cls-7 {
        fill: #eabd8c;
      }

      .cls-8 {
        fill: #f2b1b8;
      }
    </style>
  </defs>
  <g id="nurse" transform="translate(0 0)">
    <rect id="Rectangle_500" data-name="Rectangle 500" class="cls-1" width="22.944" height="22.944" transform="translate(30.592 59.252)"/>
    <path id="Path_5250" data-name="Path 5250" class="cls-2" d="M188.384,87.915H137.066a26.781,26.781,0,0,0-1.109,7.648v15.3h53.536v-15.3A26.781,26.781,0,0,0,188.384,87.915Z" transform="translate(-120.661 -66.903)"/>
    <g id="Group_249" data-name="Group 249" transform="translate(55.687 21.012)">
      <path id="Path_5251" data-name="Path 5251" class="cls-3" d="M324.877,87.915h-9.56a26.781,26.781,0,0,1,1.109,7.648v15.3h9.56v-15.3A26.782,26.782,0,0,0,324.877,87.915Z" transform="translate(-312.841 -87.915)"/>
      <path id="Path_5252" data-name="Path 5252" class="cls-3" d="M318.1,140.571l-13.145,27.567A15.3,15.3,0,1,0,318.1,140.571Z" transform="translate(-304.957 -127.986)"/>
    </g>
    <rect id="Rectangle_501" data-name="Rectangle 501" class="cls-1" width="72.656" height="7.648" transform="translate(5.736 108.964)"/>
    <path id="Path_5253" data-name="Path 5253" class="cls-4" d="M150.043,302.07l-18.462-6.155-11.472,7.648-11.472-7.648L90.175,302.07a14.943,14.943,0,0,0-7.707,22.466l1.314,1.971v7.648H96.442a13.023,13.023,0,0,0,2.635,3.824V341.8h42.064v-3.824a13.023,13.023,0,0,0,2.635-3.824h12.661v-7.648l1.314-1.971a14.943,14.943,0,0,0-7.707-22.466Z" transform="translate(-78.045 -225.191)"/>
    <path id="Path_5254" data-name="Path 5254" class="cls-5" d="M308.041,316.245a14.946,14.946,0,0,0-10.218-14.177l-18.462-6.153-5.212,3.476c8.017,3.021,24.332,9.908,24.332,17.556s-1.912,9.56-1.912,9.56h7.648l1.314-1.971A14.943,14.943,0,0,0,308.041,316.245Z" transform="translate(-225.825 -225.191)"/>
    <rect id="Rectangle_502" data-name="Rectangle 502" class="cls-6" width="15.296" height="38.24" transform="translate(34.416 78.372)"/>
    <path id="Path_5255" data-name="Path 5255" class="cls-7" d="M199.958,256.284a22.757,22.757,0,0,0,22.944,0v-8.369H199.958Z" transform="translate(-169.366 -188.663)"/>
    <g id="Group_250" data-name="Group 250" transform="translate(15.296 28.66)">
      <path id="Path_5256" data-name="Path 5256" class="cls-1" d="M206.2,125.651v13.384a19.12,19.12,0,0,1-19.12,19.12h0a19.12,19.12,0,0,1-19.12-19.12V125.651h1.912a28.681,28.681,0,0,0,17.208-5.736h0a28.681,28.681,0,0,0,17.208,5.736Z" transform="translate(-160.309 -119.915)"/>
      <path id="Path_5257" data-name="Path 5257" class="cls-1" d="M143.606,151.915a7.648,7.648,0,0,0,0,15.3h38.24a7.648,7.648,0,1,0,0-15.3Z" transform="translate(-135.958 -144.267)"/>
    </g>
    <path id="Path_5258" data-name="Path 5258" class="cls-6" d="M162.726,28.947a42.6,42.6,0,0,0-17.208,3.824l-8.229-6.583a3.547,3.547,0,0,1-1.331-2.77h0a3.549,3.549,0,0,1,1.866-3.124L159.132,8.821a7.581,7.581,0,0,1,3.595-.906h0a7.581,7.581,0,0,1,3.595.906l21.307,11.472a3.551,3.551,0,0,1,1.866,3.124h0a3.547,3.547,0,0,1-1.331,2.77l-8.229,6.583A42.607,42.607,0,0,0,162.726,28.947Z" transform="translate(-120.662 -6.023)"/>
    <path id="Path_5259" data-name="Path 5259" class="cls-8" d="M259.978,30.809a36.725,36.725,0,0,1,5.187,1.962l8.229-6.583a3.549,3.549,0,0,0-.535-5.895L251.552,8.821a7.581,7.581,0,0,0-3.595-.906S260.953,16.051,259.978,30.809Z" transform="translate(-205.893 -6.023)"/>
    <path id="Path_5260" data-name="Path 5260" class="cls-6" d="M185.87,296.592a7.649,7.649,0,1,0,13.143,6.971h.482a7.649,7.649,0,1,0,12.923-7.21l-1.692-.438-11.472,7.648-11.472-7.648Z" transform="translate(-157.19 -225.191)"/>
    <path id="Path_5261" data-name="Path 5261" d="M144.56,75.064l-17.155-5.719V63.99c.208-.172.4-.363.6-.543a17.171,17.171,0,0,0,14.7-31.032V28.66a28.641,28.641,0,0,0-1.128-7.956,5.444,5.444,0,0,0-1.744-8.116L118.522,1.114a9.657,9.657,0,0,0-9,0L88.209,12.586a5.449,5.449,0,0,0-1.74,8.118,28.641,28.641,0,0,0-1.128,7.956v15.3A9.539,9.539,0,0,0,93.775,53.4a21.067,21.067,0,0,0,6.862,10.589v5.356L83.483,75.064a16.858,16.858,0,0,0-8.7,25.342l.994,1.489v16.629h76.48V101.9l.994-1.489a16.858,16.858,0,0,0-8.7-25.342Zm-17.155,1.4a5.728,5.728,0,0,1-10.87,2.533l9.241-6.16.415.14A5.689,5.689,0,0,1,127.405,76.46Zm-25.559-3.486.421-.14L111.507,79a5.723,5.723,0,1,1-9.661-6.021Zm6.44,12.831a9.531,9.531,0,0,0,5.736-3.652,9.539,9.539,0,0,0,5.736,3.652V114.7H108.285ZM148.437,47.78a13.32,13.32,0,0,1-17.659,12.657,20.919,20.919,0,0,0,3.489-7.036,9.539,9.539,0,0,0,8.434-9.445V36.832A13.3,13.3,0,0,1,148.437,47.78ZM92.989,34.589a9.493,9.493,0,0,0-3.824,1.767v-7.7a24.9,24.9,0,0,1,.541-5.149L96.574,29l1.092-.543a38.716,38.716,0,0,1,32.711,0L131.47,29l6.866-5.493a24.9,24.9,0,0,1,.541,5.149v7.7a9.468,9.468,0,0,0-3.824-1.767V32.484h-3.824a26.947,26.947,0,0,1-16.061-5.354l-1.147-.86-1.147.86a26.947,26.947,0,0,1-16.061,5.354H92.989v2.105ZM135.053,47.78V38.572a5.7,5.7,0,0,1-.08,10.793C135.013,48.839,135.053,48.315,135.053,47.78ZM90.024,15.954,111.331,4.482a5.766,5.766,0,0,1,5.38,0l21.305,11.472a1.635,1.635,0,0,1,.247,2.717l-7.312,5.851a42.579,42.579,0,0,0-33.86,0l-7.313-5.851a1.636,1.636,0,0,1,.245-2.717Zm-.858,28a5.728,5.728,0,0,1,3.824-5.384V47.78c0,.535.04,1.059.08,1.585A5.725,5.725,0,0,1,89.165,43.956Zm7.648,3.824V36.308a30.811,30.811,0,0,0,17.208-5.3,30.811,30.811,0,0,0,17.208,5.3V47.78a17.208,17.208,0,0,1-34.416,0Zm17.208,21.032a20.9,20.9,0,0,0,9.56-2.321V69.7l-9.56,6.373-9.56-6.373v-3.21A20.894,20.894,0,0,0,114.021,68.812ZM84.693,78.691l12.319-4.107a9.465,9.465,0,0,0-.2,1.876,9.578,9.578,0,0,0,7.648,9.367V114.7H94.9V112l-.56-.56a11.073,11.073,0,0,1-3.264-7.881V102.9a11.073,11.073,0,0,1,3.264-7.881l.56-.56V87.932H91.077v4.975a14.822,14.822,0,0,0-3.4,6.5H78.716l-.746-1.119a13.033,13.033,0,0,1,6.723-19.594Zm2.985,28.361H79.605v-3.824h7.648v.327A14.99,14.99,0,0,0,87.678,107.052Zm-8.073,3.824h9.56v-.017a14.961,14.961,0,0,0,1.912,2.69V114.7H79.605Zm57.36,3.824v-1.151a14.962,14.962,0,0,0,1.912-2.69v.017h9.56V114.7H136.965Zm11.472-11.472v3.824h-8.072a14.991,14.991,0,0,0,.424-3.5v-.327Zm1.635-4.943-.746,1.119h-8.962a14.842,14.842,0,0,0-3.4-6.5V87.932h-3.824v6.528l.56.56a11.073,11.073,0,0,1,3.264,7.881v.654a11.072,11.072,0,0,1-3.264,7.881l-.56.56v2.7h-9.56V85.827a9.545,9.545,0,0,0,7.461-11.237l12.308,4.1a13.031,13.031,0,0,1,6.723,19.592Z" transform="translate(-71.957 0)"/>
    <circle id="Ellipse_44" data-name="Ellipse 44" cx="1.912" cy="1.912" r="1.912" transform="translate(30.592 40.132)"/>
    <circle id="Ellipse_45" data-name="Ellipse 45" cx="1.912" cy="1.912" r="1.912" transform="translate(49.712 40.132)"/>
    <path id="Path_5262" data-name="Path 5262" d="M223.606,223.563a7.656,7.656,0,0,0,7.648-7.648H227.43a3.824,3.824,0,0,1-7.648,0h-3.824A7.656,7.656,0,0,0,223.606,223.563Z" transform="translate(-181.542 -164.311)"/>
    <path id="Path_5263" data-name="Path 5263" d="M227.782,43.387h3.824V39.563h3.824V35.739h-3.824V31.915h-3.824v3.824h-3.824v3.824h3.824Z" transform="translate(-187.63 -24.287)"/>
    <rect id="Rectangle_503" data-name="Rectangle 503" width="3.824" height="3.765" transform="translate(40.229 88.505)"/>
    <rect id="Rectangle_504" data-name="Rectangle 504" width="3.824" height="3.765" transform="translate(40.152 97.549)"/>
    <rect id="Rectangle_505" data-name="Rectangle 505" width="3.824" height="3.765" transform="translate(40.083 106.595)"/>
  </g>
</svg>
