<svg xmlns="http://www.w3.org/2000/svg" viewBox="791 1791.298 117.258 104.514">
  <defs>
    <style>
      .cls-1 {
        fill: #4e2a0e;
      }
    </style>
  </defs>
  <g id="Group_67" data-name="Group 67" transform="translate(790.65 502.659)">
    <path id="Path_1700" data-name="Path 1700" class="cls-1" d="M58.06,102.827c0-.274.274-.753-.548-.753a1.4,1.4,0,0,0-1.3.548c-.548,1.3-1.575,1.575-2.328,1.027a2.246,2.246,0,0,1-.753-3.355c.274-.753,1.027-1.027,1.027-1.848.274-.274.274-.548,0-.548H53.61c-1.575,1.027-2.6,2.6-4.176,3.628-.274.274-.753,1.027-1.027.548-.274-.274.548-.548.753-.753,1.575-1.3,2.875-2.875,4.381-4.176a.589.589,0,0,0,.548-.548c-.274,0-.548-.274-.753-.274-1.3,0-2.875,0-3.9,1.027l-3.9,3.9c-.274.274-.548.548-.753.548-.274-.274.274-.753.274-.753l3.9-3.9c.274-.274.753-.548.548-.753-.548-.274-.753-.753-1.3-.548a9.8,9.8,0,0,1-1.027.753,59.208,59.208,0,0,1-4.381,4.108c-.274,0-.274.274-.548.274.548-1.027,1.575-1.575,2.328-2.6a37.631,37.631,0,0,1,2.875-2.6c.274-.274.753-.548.548-1.3-.274-.548,0-.753,0-1.3a1.9,1.9,0,0,0,.548-1.027A1.878,1.878,0,0,0,48,90.572c-.548-.274-1.027.274-1.3.548-.548.274-.548.753-.753,1.027-.548.548-1.027,1.3-2.054,1.3-.753,0-1.575.753-2.328,1.575L38.481,98.1c-.205.205-.479.411-.685.342,0,.068-.068.137-.137.205v-.274c0,.068.068.068.137.068a15.928,15.928,0,0,1,4.792-5c.753-.548,1.027-1.027.548-1.78-.753-.753-.548-1.575.274-2.328a.589.589,0,0,0,.548-.548.941.941,0,0,0-.753-.274c-1.027.274-2.054,1.3-1.848,2.054,0,.753,0,.753-.548,1.027-2.328,2.054-4.381,4.108-6.5,6.23-.274.274-.274.548-.548.274,0-.274.274-.274.274-.548,1.027-1.575,2.875-2.875,4.176-4.176L39.781,91.8a.956.956,0,0,0,.274-.548h-.685c-.548-.274-1.027,0-1.575.548l-3.9,3.9c-.274,0-.548.548-.753.274-.274-.274.274-.548.548-.753A22.737,22.737,0,0,1,37.317,91.6c.274-.548.548-.753,0-1.3-.753-.274-.753-.753-1.027-1.3-.274-.753-.548-.548-1.027-.274A17.626,17.626,0,0,1,32.182,91.6c-.274.274-.548.548-.548.274-.274-.274,0-.274.274-.548,1.848-1.78,3.628-3.628,5.477-5.408v-.274c.548-.548,1.027-1.027.548-1.575-.274-.548-.753.274-1.3.548-2.328,2.054-4.381,3.9-6.709,5.956-.274,0-.548.548-.548.274-.274-.274,0-.548.274-.548,2.054-2.054,4.176-3.9,6.23-5.956,0,0,.548-.548.274-.548-.548.274-.274-1.3-1.027-.753a9.643,9.643,0,0,0-2.875,2.6c-1.848,1.575-3.355,3.081-5.2,4.655H26.5c-.274-.274.274-.274.274-.548,1.848-1.575,3.355-3.081,4.929-4.655.274-.274.548-.548.274-.753,0-.274-.548,0-.753.274-3.628.753-5.682,3.628-8.284,5.956a.956.956,0,0,0-.548.274c-.274.274-.548.548-.548.274-.274-.274,0-.274.274-.274,1.027-1.78,2.6-2.875,3.9-4.108.274-.274.548-.274.548-.548h-.89a2.826,2.826,0,0,0-2.328,1.3,15.651,15.651,0,0,1-2.328,2.054c-.274.274-.548.548-.548.274-.274-.274,0-.548,0-.753a5.817,5.817,0,0,0,1.848-1.575.94.94,0,0,0,.274-.753H22.05c-1.027,0-2.054,0-2.6,1.3a17.846,17.846,0,0,1-2.054,1.575h-.548a.268.268,0,0,1,.274-.274A10.368,10.368,0,0,1,18.7,87.56c0-.274.274-.274.274-.548s-.548,0-.548-.274a2.141,2.141,0,0,0-2.054.753,15.652,15.652,0,0,1-2.328,2.054c-.274.274-.548.548-.753.274s.274-.548.274-.548l2.328-2.328c.548-.274.274-.548-.274-.753a1.45,1.45,0,0,0-1.575.274c-1.575,1.3-2.875,2.328-4.176,3.355-.274.274-.548.548-.753.274-.274-.274.274-.274.548-.548l3.081-3.081c.274-.274,1.027-.548.548-1.027-.548-.274-.753-.548-1.575,0-2.054,1.575-3.628,3.355-5.682,4.929-.274.274-.548.753-1.027.753a24.716,24.716,0,0,1,3.9-4.108,14.842,14.842,0,0,0,1.848-1.78c.274-.274.753-.274.274-.753H10a5.041,5.041,0,0,0-1.848,1.3c-1.3,1.3-2.875,2.875-4.381,4.176a.589.589,0,0,1-.548.548c-.274-.274,0-.548.274-.753,1.848-1.78,3.355-3.9,5.477-5.477.274,0,.753-.274.274-.753-.274-.274-.548,0-.753.274-.753.548-1.3,1.3-2.054,1.848H5.894c0-.274,0-.274.274-.548l1.575-1.575c.548-.548.548-.753,0-1.575a4.72,4.72,0,0,1-1.3-2.6.815.815,0,0,0-.274-.753c-.274,0-.274.274-.548.548-1.027,1.575-2.328,3.081-3.355,4.655-.274.274-.548,1.027-1.027.753a1.9,1.9,0,0,0,.548-1.027c1.575-2.054,2.875-4.176,4.382-6.23a1.282,1.282,0,0,1,.548-1.027c.548-1.027,0-1.3-.753-1.3-2.054-1.027-2.054-1.027-3.355,1.027a11.654,11.654,0,0,1-1.78,2.6c0,.274-.274,1.027-.753.753-.274-.274.274-.753.548-1.027a29.469,29.469,0,0,1,2.054-3.355A1.3,1.3,0,0,0,2.4,72.91C.828,71.335-.2,69.829.075,67.433a4.567,4.567,0,0,1,1.575-3.355A19.532,19.532,0,0,1,5,61.2a1.163,1.163,0,0,0,1.027-.753c1.027-1.78,2.328-3.081,3.355-4.655.274-.548.274-.753,0-.753a6.6,6.6,0,0,0-1.575-1.3c-.753-.753-.753.274-1.027.548-.548,1.027-1.3,2.054-1.78,3.081-.548.548-.753,1.3-1.575,1.575,0-.753.548-1.3.753-1.78a34.737,34.737,0,0,0,2.6-4.176c0-.274.548-.548,0-.753-.274,0-.274.274-.548.548-1.027,1.3-2.054,2.875-3.081,4.381-.274.274-.548.548-.753.548-.274-.548.274-.548.274-.753,1.3-2.054,2.6-3.9,3.9-5.956a3.334,3.334,0,0,0,.753-1.575A9.518,9.518,0,0,1,10.412,44.5c1.78-1.3,3.9-2.054,5.956-3.355a4.879,4.879,0,0,0,1.575-1.575,17.457,17.457,0,0,1,2.6-3.628c.548-.548,1.3-.548,1.78-1.3,1.3-1.3,2.875-2.6,4.176-4.176a8.325,8.325,0,0,1,1.027-1.848.589.589,0,0,1,.548-.548.379.379,0,0,1,0,.548c-.274.548-.274.753-.548,1.027.548,0,.753-.548,1.027-.548.753-.274,1.027-1.3,1.575-1.848l.274-.274c.274.274.274.274,0,.548v.274a27.744,27.744,0,0,1-6.23,7.531A14.3,14.3,0,0,0,21.3,38.2a.268.268,0,0,0-.274.274h.548c1.575-.753,2.6-2.328,4.108-3.355.548-.274.753-.753,1.3-1.3.274,0,.274-.274.548-.274a.956.956,0,0,1-.274.548A9.8,9.8,0,0,0,26.5,35.12c-.548.274,0,.753,0,1.027.274,0,.753.274,1.027-.274v-.548A24.626,24.626,0,0,1,30.4,29.643c1.848-3.081,4.176-5.956,6.23-8.831,1.3-1.848,2.328-3.628,3.628-5.408a4.841,4.841,0,0,1,1.027-1.027,1.908,1.908,0,0,1-.548,1.3c-1.575,2.054-2.6,4.381-4.381,6.23-.274,0-.274.548,0,.548,0,.274.274,0,.548-.274A8.315,8.315,0,0,0,39.987,19.1,94.405,94.405,0,0,1,46.7,11.09c1.3-1.3,2.6-2.875,3.9-4.381,0-.274.274-.548.548-.274s0,.548-.274.548c-2.6,3.081-5.408,6.23-8.01,9.584-.274,0-.548.274-.274.548a.848.848,0,0,0,.548-.274,13.623,13.623,0,0,0,3.081-2.875c2.054-2.328,3.628-4.929,5.682-7.257h.274c.548,0,0,.274,0,.274a52.092,52.092,0,0,1-4.381,5.682c-.274.274-.548.274-.548.753A2.174,2.174,0,0,0,48,13.144a10,10,0,0,0,1.78-1.3c1.3-1.575,3.081-2.054,4.929-2.875a16.185,16.185,0,0,0,6.5-4.655A32.094,32.094,0,0,1,65.522,0V1.164c-1.164,1.1-2.328,2.259-3.491,3.423,0,0-.274.274,0,.274H62.3a23.622,23.622,0,0,1,3.286-1.369v.89a40.082,40.082,0,0,0-5.34,2.807c-.548.274-1.027.548-1.027.753,0,.548.753.274,1.027.274h1.3a.268.268,0,0,1,.274-.274h-.274c-.548-.274-1.027.274-1.027-.274,0-.274.548-.274,1.027-.548h1.027a1.7,1.7,0,0,0,1.575-.753,2.169,2.169,0,0,1,1.438-.89V6.5l-.137.137a.268.268,0,0,0-.274.274c0,.205.205.274.411.274V8.421l-.137.274h.137v.685a2.141,2.141,0,0,1-.685.342c0,.274-.274.548-.548.274s0-.274.274-.548c0-.274,0-.274-.274-.548a.268.268,0,0,0-.274.274A5.385,5.385,0,0,0,62.236,10.2a6.9,6.9,0,0,1-3.355,1.027c-1.027-.274-1.575.548-2.054,1.3-.274,1.78.274,3.628-2.054,4.381-.753.548-1.027,1.848-1.78,2.328-.274-.548.274-.753.548-1.027,0-.274.548-.753.274-1.027-.548-.274-1.027-.274-1.3.274-.548.548-.753,1.3-1.3,1.78a4.4,4.4,0,0,1-1.3,2.328c.274-1.575,1.3-2.875,1.848-4.176a.848.848,0,0,0,.274-.548c.274-.274,0-.548-.274-.753-.274-.274-.274.274-.274.274-1.3,1.848-2.328,3.9-3.355,5.682,0,.548-.274.753-.274,1.027H46.9V22.8a40.673,40.673,0,0,1,3.081-5.956c.274-.274.548-.753.274-.753-.548-.274-.753.274-.753.548-.548,1.027-1.3,2.054-1.78,3.081,0,.274-.274.753-.548.753-.274-.274,0-.548,0-1.027a4.58,4.58,0,0,0,.479-1.164c-.753.479-.89,1.506-1.506,2.191a9.5,9.5,0,0,1-.753,1.3c0,.274-.274.753-.548.548-.274,0-.274-.548,0-.753.548-.753.753-1.848,1.3-2.6a.941.941,0,0,0,.274-.753h-.753c-.274.274-.274.274-.548.274s-.753.274-.753-.274c0-.274-.548-1.027.274-1.3h.548c.753-.274,1.848-.274,2.328-1.3.274-.274,1.027-1.027,1.78-.274,0,0,.548-.274.548-.548A3.51,3.51,0,0,1,53.2,13.213c.274,0,.753,0,.753-.274H52.378a.536.536,0,0,1,.548-.548,1.2,1.2,0,0,1,.753-.274,4.019,4.019,0,0,1,2.328-2.6.268.268,0,0,1,.274-.274h-.548c-1.78.753-3.628,1.027-5.2,2.6a7.807,7.807,0,0,1-2.054,1.575A43.456,43.456,0,0,0,39.918,20.4c0,.274-.274.548-.274.753-.274,0-.548,0-.548.274-1.3.753-2.875,1.3-3.355,3.081v-.274c-.753.753-1.3,1.848-2.054,2.6v.274h.548a4.533,4.533,0,0,1,1.848-1.3h.548c0,.274-.274.274-.548.274A23.661,23.661,0,0,0,33,28.959c0,.274-.274.274-.274.548.274.274.548-.274.548-.274a21.372,21.372,0,0,1,2.6-1.848h.548c0,.274-.274.274-.274.548a14.115,14.115,0,0,0-3.081,2.6s-.548.274-.274.548.548-.274.753-.274c.548-.548,1.3-1.027,1.78-1.575,0-.274.274-.548.548-.274s0,.548-.274.753c-.548.548-1.3,1.027-1.78,1.575-.274.274-.548.548-.274.753a.956.956,0,0,0,.548-.274c.274-.274.274-.548.753-.274.274.274,0,.548-.274.548a37.324,37.324,0,0,0-3.355,3.081c-.274.274-.548.548-1.027.274-.274-.274.274-.548.548-.548,0-.274.274-.548,0-.548,0-.274-.274-.274-.548-.274-.548,0-.753.753-1.3,0a7.96,7.96,0,0,0-.753,4.381.848.848,0,0,1,.274.548c1.027,2.054,4.381,3.355,6.5,2.328,2.328-1.3,4.655-2.054,6.709-3.628a9.8,9.8,0,0,1,1.027-.753c-.548-.274-1.027-.548-1.3.274-.274.274-.548.548-.753.274H39.371c-.274.274-.274.274-.548.274-.274-.274,0-.274,0-.548,0,0,.274-.274,0-.274h-.548a9.5,9.5,0,0,1-.753,1.3c0,.274-.274.753-.548.753-1.027-.753-1.3,0-1.575.548-.274.274-.274.548-.548.548-.548-.274-.274-.548,0-.753a16.439,16.439,0,0,0,.753-1.575c0-.274.274-.274,0-.548s-.274,0-.548.274a19.552,19.552,0,0,1-1.78,2.6c0,.274-.274.548-.548.753a.814.814,0,0,1-.753-.274c0-.274.274-.274.274-.548A6.991,6.991,0,0,0,34.3,37.105c.274-.274.548-.753.274-1.027-.274,0-.548.548-.753.753-.753.753-1.575,1.78-2.328,2.6-.274.274-.753.548-.753,0-.274,0,0-.274.274-.548,1.3-1.3,2.875-2.875,4.108-4.381a2.765,2.765,0,0,1,3.149-.753h.753c.548-.274.548-.274.548.274,0,.274,0,.753.274.753.548,0,.548-.548.548-.753a8.693,8.693,0,0,0,.753-1.78s.274-.548.548-.274c.274,0,.274.274,0,.548a16.1,16.1,0,0,1-1.027,2.875c-.274.274-.548.548-.274.753.274.274.548-.548.753-.753A32.9,32.9,0,0,1,43,30.739c0-.548,0-.753.753-.548.274.274.548,0,.753-.274.274,0,.274-.274.548-.274,1.575.753,1.3-.753,1.848-1.575,0,0,.274-.548.548-.548.274.274,0,.548,0,.753,0,.548-.274,1.027,0,1.575.548-.274.274-.753.548-1.3.274-1.027.753-1.78,0-3.081-.548-1.027.753-1.848,1.575-2.328A2.137,2.137,0,0,0,50.6,22.113c0-.274,0-.548.274-.548s.274.274.274.548v2.6c.274.274.274,0,.274-.274.274-.753.753-1.3.548-2.054,0-.548,0-.753.548-.753s.274.274.274.753v1.575a9.887,9.887,0,0,0,.753-3.9c.274-.753.274-1.3,1.3-1.027.274.274.753.274,1.027-.274,0-.274.274-.548.548-.274.548.548,1.027.548,1.027-.274h.548l.274.274c0,.548-.274.753.274.753s.274-.548.548-.753c.274-.548.274-1.027.548-1.575,0-.274,0-.548.274-.548.548.274.274.548.274.753,0,.548-.274,1.027-.274,1.78-.274,0-.274.274,0,.548a.956.956,0,0,0,.274-.548c.548-.753.753-1.575,1.3-2.328.274-.274.274-.753.548-.548.274,0,0,.274,0,.548a5.588,5.588,0,0,1-.753,2.054c0,.274-.274.548,0,.753.274,0,.274-.274.548-.274.548-1.3,1.027-2.6,1.575-3.628.274-.548,0-.548-.274-.753-.753-.274-1.027-.753-.548-1.575.548-.753,1.027-1.575,1.848-1.027.548,0,.753.274,1.027-.274,0-.205.068-.205.137-.068v4.45a.934.934,0,0,0-.685.753c0,.274,0,.274.274.274l.411-.411v1.643c-.685.342-1.3.753-1.985,1.1-2.054,1.027-3.9,2.328-5.956,3.355a3.832,3.832,0,0,0-.753,1.3c0,.274-.274.274-.548.274s-.274,0-.274-.274,0-.753-.548-.274c-.274.753-.274,2.054-1.575,1.575-.274,1.027-1.575.753-2.054,1.575,0,0-.274.548-.548.274-.274,0,0-.274-.274-.548,0-.548.548-.753.274-.753-.274-.274-.548.274-.753.548a1.469,1.469,0,0,0-.274,1.027c-.274.274-.274.753-.753.753-.753,0-.548.548-.753.753-.274.548.274.753.753,1.027h.753c2.6-2.054,5.2-4.176,7.531-5.956a67.8,67.8,0,0,1,7.668-4.724v3.56a.579.579,0,0,0-.137.411c-.274.274-.753.548-.753,1.027h.274a2.176,2.176,0,0,0,.685-.685v.958a23.4,23.4,0,0,0-2.738,1.78h-.89v-.548a9.79,9.79,0,0,0,.753-1.027.848.848,0,0,0,.274-.548h-.548a5.374,5.374,0,0,0-2.054,2.054c-.753,1.027-1.3,2.054-2.054,3.081-.274.274-.274.548-.548.548-.548-.274-.274-.548,0-.753.274-.548.548-.753.548-1.3.274-.548,1.027-1.027,1.027-1.575a2.654,2.654,0,0,0-1.78,1.027c-1.027,1.848-2.875,3.081-2.875,5.408,0,1.027-.753,1.848-1.027,2.875-.274.548-.548,1.027-.274,1.3.274,0,.753-.548,1.027-.753.753-1.575,1.3-2.875,2.054-4.381.274-.274.274-.753.753-.548.548,0,0,.548,0,.753-.548,1.027-1.027,2.054-1.575,3.081,0,.274-.274.548,0,.753a.956.956,0,0,1,.548-.274,5.16,5.16,0,0,0,1.027-1.575c.753-2.054,1.3-4.108,3.081-5.408a2.41,2.41,0,0,1,2.875-.548c.548,0,1.027,0,.753.753H64.5c.411,0,.479-.342.685-.753v4.381h0a.815.815,0,0,0-.685.274.268.268,0,0,0,.274.274h.411v.753a9.423,9.423,0,0,0-1.164.548v.274c.479-.137.822-.205,1.164-.342v2.4c-.068-.068-.137-.068-.137.068-.548.274-1.027.274-1.3.753h.274c.479-.205.89-.068,1.164-.342v1.232h0c-.479.479-.958.685-1.164,1.164-1.848,3.081-3.355,6.435-4.929,9.311-.274.274-.548.753-.274,1.027.548.274.548-.274.753-.548a35.682,35.682,0,0,1,2.054-3.9c0-.274.274-.753.548-.548.274.274,0,.548,0,.753a18.522,18.522,0,0,1-2.054,3.628c-.548.753-.274,1.027.548,1.027a5.416,5.416,0,0,0,3.628-.548,4.429,4.429,0,0,1,.89-.274V52.3a1.528,1.528,0,0,1-.89.205c-.548.274-.753.274-1.027.753.274.274.753-.274,1.027-.274a1.105,1.105,0,0,0,.89-.411v1.78l-.411.205v.548h.411v.616a2.869,2.869,0,0,0-2.191.958,5.376,5.376,0,0,1-1.3,1.027c0,.274-.274.548-.548.274s.274-.274.274-.548c.274-.274.548-.274.548-.753a1.757,1.757,0,0,0-1.027.274,3.062,3.062,0,0,0-1.848.753c-.753.274-1.027,0-1.3-.548-1.027.274-1.78,1.3-2.6,2.054a.268.268,0,0,1-.274.274c-.274,0-.274-.274,0-.548a.379.379,0,0,0,0-.548h-.479a7.969,7.969,0,0,0-3.9,4.655c-.548.753-.548,2.054-1.575,2.054-1.3,0-3.081.753-4.108-.753-.274-.274-.274-.753-.753-.548-.274.274-.274.548,0,1.027.274.274-.274.548-.274.753-1.575,2.054-2.875,4.176-4.381,6.23-.274.548-.548,1.027-.274,1.575,0,.753-.753,1.027-1.027,1.575-.274,1.027-1.3,1.78-1.3,2.875.548-.753,1.3-1.575,1.78-2.328l1.575-1.575c.274-.274.274,0,.274.274-1.027,1.027-1.575,2.328-2.6,3.355v.548l.274-.274a19.532,19.532,0,0,0,2.875-3.355c.548,0,.548-.548,1.027-1.027l.548-.548h.274v.274a.956.956,0,0,1-.274.548c-.274.274-.753.548-.274.753a.465.465,0,0,0,.753-.274,38.609,38.609,0,0,0,4.176-5.2c.274,0,.274-.548.548-.548.548.274,0,.548,0,.753a9.985,9.985,0,0,1-1.848,2.6.956.956,0,0,1-.274.548c.274.274.548-.274.548-.274a42.509,42.509,0,0,0,3.355-3.9c.274-.274.274-.548.548-.274.274,0,0,.274,0,.548a69.636,69.636,0,0,0-5.477,6.983,5.429,5.429,0,0,1-4.176,2.6c-1.575.274-3.081,1.575-4.929,1.3-.548,0-.753,1.027-1.027,1.575-.274.274-.548.753-1.027.548-.548-.274-.548-.753-.274-1.027,0-.548,0-.753.548-.548.548.274.753-.548.753-.753.274-.548-.274-.274-.548-.548h-.753c-.548.753-1.3,1.3-1.575,2.054-.274.548-.548.753-1.3.548-.548-.548-.548.274-.753.548-.274,0-.274.274-.548.274-.548-.274-.274-.548,0-.753,1.027-1.3,2.054-2.875,3.081-4.108a6.6,6.6,0,0,0,1.3-1.575c.274-.274.274-.548.548-.548.274.274.274.548,0,.753a9.79,9.79,0,0,0-.753,1.027c0,.274-.274.548,0,.753,0-.274.274-.274.548-.548.753-.753.753-1.78,1.3-2.875a10.466,10.466,0,0,0,1.848-2.6c.274,0,.548-.274.274-.548s-.548,0-.548.274a16.4,16.4,0,0,0-1.78,2.875l-.274.274a.379.379,0,0,1,0-.548c0-.274.274-.548.274-.753,1.575-1.575,1.3-3.081.274-4.929h-.753c-1.027,1.3-2.328,2.6-3.355,3.9-.274.274-.274.548-.548.274-.274,0,0-.274,0-.548a42.6,42.6,0,0,0,3.081-3.628.848.848,0,0,0,.274-.548c-.274-.274-.274,0-.548.274A8.31,8.31,0,0,0,30.4,70.993c-.548.274-.753.753-1.3,1.3,0,.274-.274.274-.548.274-.274-.274,0-.548.274-.753.548-.548,1.027-1.3,1.575-1.78,0-.274.274-.548,0-.548h-.616a14.523,14.523,0,0,1-2.054,2.054c0,.274-.274.548-.548.753-.274.274-.548,1.027-1.027.753-.274-.274.548-.548.548-1.027,0-.274.274-.274.548-.548a.956.956,0,0,1,.274-.548h-.753A3.646,3.646,0,0,0,23.9,72.978c-.274.274-.548.753-.753.548-.548-.274,0-.548,0-.753.548-.548.753-1.027,1.027-1.3s.548-.548.274-.753c-.274-.274-.548,0-.548.274-1.027,1.3-2.054,2.328-3.081,3.628-.274.548-1.027,1.575-1.3,1.3-.548-.753.548-1.3.753-1.78a.589.589,0,0,1,.548-.548c0-.548.753-.753.548-1.027-.274-.274-1.027.274-1.3.548a5.07,5.07,0,0,0-1.3,2.328,3.379,3.379,0,0,1-3.081,2.328c-.753,0-1.027.753-1.575,1.3,0,.274,0,.274.274.274s.274,0,.274-.274c.548,0,.753-.753,1.027-.274.548.274-.274.548-.548,1.027-.274,0-.274.274-.548.548.274,0,.548-.274.753-.274a1.4,1.4,0,0,1,1.027-.548c0-.274.548-.548.548-.274.274.274,0,.274,0,.548a.268.268,0,0,0-.274.274h.274l.274-.274c.274-.274.548-1.027,1.027-.548.274.274-.548.548-.548.753-.274.274-.274.274-.274.548.274.274.274,0,.548-.274.753-.274,1.3-1.3,2.328-.548.274.274.753,0,1.027-.274,0-.274.274-.548.548-.274s0,.274-.274.548c0,.274-.274.274,0,.548a.956.956,0,0,0,.548-.274c.753-.753,1.848-1.575,2.6-2.328.274-.274.274-.753.753-.548-.274.274.274.753,0,1.027,0,.274-.548.753-.274.753.274.274.548-.274.753-.548.548-.753,1.575-1.575,1.3-2.875a2.141,2.141,0,0,1,.753-2.054c1.027-.753,1.575-.548,2.6.753.274.274.274,1.78,1.3.548h.274c0,.274,0,.548-.274.548a62.207,62.207,0,0,1-3.628,5.408c-.274.274-.548.274-.548.548a.268.268,0,0,0-.274.274c-.548.753,1.027.548.548,1.027-.274.548-.548.753-.548,1.3h.753a22.476,22.476,0,0,0,5.682-2.054,60.161,60.161,0,0,0,6.23-2.6,55.649,55.649,0,0,0,6.23-2.875,100.587,100.587,0,0,1,11.638-4.655A8.25,8.25,0,0,0,61.072,70.1a.941.941,0,0,1,.753-.274,2.9,2.9,0,0,0,1.575-.548,3.347,3.347,0,0,1,1.712-1.164v1.506c-.068,0-.137.068-.137.205,0,.205,0,.274.137.274v2.328a.626.626,0,0,0-.685.548c0,.548.274.548.548.548h.137V74.69c-.068,0-.137,0-.137-.068.274-1.3-.753-.548-1.027-.548s-.548.548-.753.753c0,.548-1.027,1.3-1.027,1.027-.548-1.027-1.3-.274-2.054,0-.274,1.027-.274.753-1.3.753H55.185a1.1,1.1,0,0,0-1.027,1.027c0,.274,1.3.753,0,.753a.268.268,0,0,1,.274.274c1.848.548,2.054,1.027,1.027,2.875a.941.941,0,0,0-.274.753c.274,0,.548,0,.548-.274h.753c.274,0-.274.274-.548.548a1.727,1.727,0,0,0,0,2.875h1.027c.753,1.027,1.575.548,2.054,0a2.826,2.826,0,0,0,1.3-2.328v-1.3c0-1.027.753-1.3,1.78-1.575,1.575,0,2.328.753,2.054,2.328a2.278,2.278,0,0,0,.89,2.533v.822a3.365,3.365,0,0,1-1.985-3.149v-.274c.274-.753.274-1.3-.548-1.575a1.509,1.509,0,0,0-1.575,1.3c.274,1.3-.548,2.328-1.3,3.355a9.8,9.8,0,0,1-1.027.753c-.548,0-.753.548-.548.753a15.143,15.143,0,0,1-.753,3.355.589.589,0,0,1-.548.548v-.548a5.144,5.144,0,0,0,.274-2.875c0-.274,0-.548-.274-.548,0,.274,0,.274-.274.548a12.276,12.276,0,0,0-.548,3.355c0,.274,0,.753-.548.753s-.274-.548-.274-.753a11.275,11.275,0,0,1,.753-3.9v-.548a.956.956,0,0,0-.548.274,12.152,12.152,0,0,0-.548,3.081c0,.274,0,.753-.548.753s-.274-.548-.274-.753c.274-1.027.274-2.054.548-3.355v-.753c-.274-.548-.274-1.3-1.027-1.78-.274-.274-.753.548-1.027.753-.548.548-1.3,1.3-1.575,1.027-.548-.753.548-1.3,1.027-1.575,1.848-.753,1.848-2.6,2.875-3.9.548-.548,0-1.027-.753-1.027a2.305,2.305,0,0,0-2.6,2.054.268.268,0,0,0-.274.274c-1.575,1.575-3.081,2.875-4.381,4.381-.274,0-.548.548-.753.274-.274-.274,0-.548.274-.753.548-.753,1.3-1.3,1.78-2.054.274,0,.548-.274.274-.274h-.274a13.884,13.884,0,0,0-2.054,1.848c-.274.274-.548.548-.753.274-.274-.274,0-.548.274-.753a2.451,2.451,0,0,1,1.3-1.027c.274-.274.548-.548.548-.753-.274-.274-.548-.753-.753-.753-.274-.274-.548.274-.753.548a6.6,6.6,0,0,1-1.3,1.575c-.274.274-.274.753-.753.548,0-.274.274-.548.548-.753a15.891,15.891,0,0,0,2.054-2.875c.274-.548,1.027-1.027.548-1.3-.753-.274-1.575-.548-2.328.548-1.3,1.78-2.6,3.9-3.9,5.682v.548a.956.956,0,0,0-.548.274c-.274-.274-.274-.548,0-.753.548-.753,1.027-1.575,1.575-2.328a8.542,8.542,0,0,1,1.3-2.054c.274-.548.274-.753-.548-.753-1.575-.274-2.054,1.027-2.875,2.054-.753,1.027-1.575,2.6-2.6,3.9a1.439,1.439,0,0,0,0,1.78,2.768,2.768,0,0,0,2.054,1.3c.753,0,1.027-.548,1.3-1.027a2.674,2.674,0,0,1,3.628-1.3c.753.274.548.753,0,1.3a1.875,1.875,0,0,0-.753,2.054c.548.753,1.027.753,1.575.274a9.8,9.8,0,0,0,.753-1.027c.548-.753,1.575-1.3,2.328-.753a2.469,2.469,0,0,1,1.027,2.6c-.274.548-.274.753-.548,1.027,0,.274,0,.548.548.548.753-.274,1.027-.274.274.548-.274.274,0,.548,0,.753.548.274.753.548,1.3.274.548,0,1.027-.548,1.3-1.3.548-1.575,1.78-2.054,3.9-1.027,1.575.753,1.78,1.78,1.027,3.355-.548,1.575-1.848,2.6-2.875,3.628a1.116,1.116,0,0,0,0,1.848c.548.548.753.753,1.027-.274a.925.925,0,0,1,.822-.753h2.122a1.484,1.484,0,0,1,.685.753.814.814,0,0,0,.274.753,1.5,1.5,0,0,0,1.848,1.027c1.027-.548,1.575-1.3,1.027-2.054-1.027-3.355,0-3.355,2.6-3.081.274,0,.479.068.685.068V99.13c-.068,0-.068-.068-.137-.068a1.488,1.488,0,0,0-2.054,0c-1.027.274-.548,1.027-.274,1.575.274,1.575.274,2.054-1.027,2.875C60.114,105.154,58.539,104.675,58.06,102.827Zm-2.6-5.135a2.826,2.826,0,0,0,1.3-2.328c0-.753-.753-1.027-1.575-1.3a1.469,1.469,0,0,1-1.027-.274H53.61c-.753.274-.753.753-.753,1.575-.274.548.548,0,.753.274a2.344,2.344,0,0,1,1.575,1.78S55.185,98.172,55.459,97.692ZM21.776,85.712c0-.274-.274-.274-.548-.274a10.143,10.143,0,0,0-3.081-.753c-.753-.274-1.027-1.78-2.6-1.027a.268.268,0,0,1-.274-.274c-.548-1.3-1.575-.548-2.054-.753-1.3,0-2.6.274-2.6-1.3,0-.274,0-.274-.274-.274-.753-.274-.274-.753,0-1.027.548-.548,1.3-.753,1.78-1.3.274-.274.548-.274.274-.753-.274-.274-.548,0-.753.274a4.275,4.275,0,0,1-1.3,1.027c-.548.548-.753,1.027-1.3,0-.548-.753-.274-1.027.548-1.3.548-.274.753-1.027,1.78-.548.274,0,.274-.274.274-.548-.274-.753-.548-1.027-1.3-.548L9.316,77.36c-.274,0-.274.274-.548.274-.274-.274-.274-.548,0-.753a7.626,7.626,0,0,1,1.848-1.3c0-.274.274-.274.274-.548s-.274-.274-.548-.274a9.332,9.332,0,0,1-2.875.274c0,.274-.274.274-.274.548a5.181,5.181,0,0,0,1.3,6.23c3.628,2.6,7.8,4.381,12.46,4.176C21.229,85.986,21.5,85.712,21.776,85.712Zm1.575-1.027c0-.274-.548-.548-.753-.548a.653.653,0,0,0-.548.548c0,.274.274.274.548.274C22.8,84.685,23.351,84.959,23.351,84.685ZM21.5,83.658c.274-.274-.274-.548-.274-.548-.753,0-1.027.548-1.3,1.027-.274.274.274,0,.548.274C21.023,84.685,21.229,83.932,21.5,83.658Zm4.45.274c-.274-.753.548-1.027.548-1.575a1.635,1.635,0,0,0-1.027,1.3c-.274,0-.548.274,0,.548C25.4,84.206,25.952,84.206,25.952,83.932Zm-5.477-1.78s.274-.274,0-.274H20.2l-1.575,1.575s-.274.274,0,.274H18.9Zm3.9,1.027c1.3-1.3,2.6-2.875,3.9-4.381a.956.956,0,0,0,.274-.548l-.274-.274a1.282,1.282,0,0,0-1.027.548C26.226,80.1,24.925,81.4,23.9,82.9c-.274.274-.753.274-.548.753C23.83,83.932,24.1,83.384,24.378,83.179Zm15.54-.822c0-.548-.548-.548-.753-.548a5.507,5.507,0,0,0-1.575.753h.548c0,.274.274.274.548.274.274.274.274.753.548.548C39.644,83.179,39.644,82.631,39.918,82.357ZM50.05,82.9c.205-.616.753-1.232,1.027-2.054-.89.274-1.1,1.1-1.575,1.575-.274.274-.548.548,0,.753C49.776,83.179,50.05,83.179,50.05,82.9Zm-1.575-.274c1.027-.548,1.3-2.054,2.054-2.875,0-.274-.274-.274-.548-.274-.548,0-2.328,1.78-2.054,2.328C47.928,82.357,47.928,83.179,48.476,82.631Zm-19.99-2.875a9.593,9.593,0,0,0-2.054,2.6A7.7,7.7,0,0,0,28.485,79.756ZM12.466,81.33c-.274,0-.274,0-.548.274h.274A.268.268,0,0,0,12.466,81.33Zm31.56-.479c0-.274-.548-.274-.753-.274-.548.274-1.027,0-1.027.548H43C43.273,81.057,44.026,81.33,44.026,80.851Zm7.188-.274c-.137.068-.205.137-.137.205C51.146,80.783,51.214,80.714,51.214,80.577Zm-26.836.274.274-.274C24.378,80.577,24.378,80.577,24.378,80.851Zm26.973-.274V80.3c0,.068-.068.205-.068.274Zm.753-.548c.274-.274.548-.274.753-.548a.268.268,0,0,0-.274-.274c-.548,0-1.027,0-1.3.548V80.3A1.006,1.006,0,0,0,52.1,80.03ZM12.945,79.55a9.8,9.8,0,0,1,1.027-.753c0-.274-.274-.274-.548-.274-.274.274-.548.274-.753.753-.274.274-.753.548-.548.753S12.74,79.756,12.945,79.55Zm18.69.205h-.274v.274C31.635,80.03,31.635,80.03,31.635,79.756Zm13.213-.205c0-.274-.548-.274-.753-.274a1.05,1.05,0,0,0-1.027.548h.753C44.026,79.756,44.847,80.03,44.847,79.55Zm3.081,0c.274-.548-.753,0-1.027-.274h-.274c-.274.274-.753,0-.753.548H46.9C47.175,79.756,47.928,80.03,47.928,79.55Zm-18.621-.822c-.548,0-.548.548-.753,1.027A1.326,1.326,0,0,0,29.307,78.729Zm.479-.753h-.274a.941.941,0,0,0-.274.753C29.581,78.523,29.786,78.523,29.786,77.976Zm19.169.274H47.928c-.274,0-.548-.274-.753-.274a.956.956,0,0,0-.274.548c-.274.274,0,.274.274.274h.753C48.2,78.523,48.955,78.729,48.955,78.25Zm2.6-.274a.268.268,0,0,0-.274-.274c-.274,0-.274.274-.548.548,0,.274,0,.274.274.548C51.351,78.523,51.351,78.25,51.556,77.976Zm2.328-.274c.274-.274-.274-.274-.548-.274-.548,0-1.027.548-1.3,1.027,0,.274.274.274.548.274C53.4,79,53.679,78.523,53.884,77.7Zm-18.347,0c.274,0,.274-.274.274-.548-.274-.548-.274-.753.274-.548.548.274.753,0,1.027-.548a6.218,6.218,0,0,0,1.3-2.6,37.282,37.282,0,0,1,3.628-5.408c0-.274.274-.548,0-.548h-.753a4.72,4.72,0,0,0-1.3,2.6c0,.548-.548.753-.753,1.027-1.78,1.027-2.6,2.875-3.628,4.381-.274.548-1.027,1.3-.274,2.054,0,.274-.274.548,0,.548C35.263,78.25,35.537,77.976,35.537,77.7Zm4.861,0a.268.268,0,0,0-.274-.274l-.274.274a.268.268,0,0,1,.274.274C40.192,77.7,40.4,77.7,40.4,77.7Zm-23.824-.753c.548-1.027,1.575-1.78,1.848-2.875,0-.274.274-.548,0-.548-.274-.274-.274,0-.548.274-.548.753-1.027,1.575-1.575,2.328-.274.274-.548.548-1.027.274-.274-.548.274-.548.274-.753.274-.548.753-.753,1.027-1.3a.956.956,0,0,0,.274-.548c-.274-.274-.548,0-.548.274a12.512,12.512,0,0,0-2.054,1.848c-.274,0-.274.753-.753.548-.274-.274,0-.753.274-1.027a.268.268,0,0,0,.274-.274.848.848,0,0,0,.274-.548h-.548a2.067,2.067,0,0,0-1.3,1.575c-.274.274.274,1.027,1.027,1.3a2.246,2.246,0,0,0,1.3.274C15.546,77.7,16.368,77.7,16.573,76.949Zm13.487-.822c-.274-.548-.548-1.027-1.027-1.027-.753,0-.753.548-1.027,1.3,0,.274,0,.753.753.753C29.307,77.223,29.786,76.949,30.06,76.127Zm27.247.548c0-.548-.274-.274-.548-.548-.548,0-1.027,0-1.3.548,0,.548.753.274,1.027.548C56.759,77.223,57.307,77.223,57.307,76.675Zm2.807,0a1.333,1.333,0,0,0-1.848-.274c-.274,0-.274.274-.274.548s.274.274.548.274A1.813,1.813,0,0,0,60.114,76.675Zm-7.736,0c0-.274-.548-.274-.548-.274-.274,0-.753,0-.753.274s.274.274.548.274S52.1,77.223,52.378,76.675Zm-9.105,0V76.4c-.274,0-.274,0-.548.274v.274C43,76.675,43,76.675,43.273,76.675Zm11.159,0c0-.274,0-.274-.274-.274s-.548,0-.548.274a.268.268,0,0,0,.274.274C54.158,76.949,54.432,76.949,54.432,76.675Zm7.531-.753c.753,0,1.027-.274,1.027-1.027,0-.274-.274-.274-.548-.274-.548,0-.753.548-1.027,1.027S61.688,75.922,61.962,75.922Zm-.822-1.1c0-.548-.274-.274-.548-.274-.753-.274-1.575,0-1.575.753-.274.548.548,0,1.027.548C60.662,75.922,60.935,75.374,61.141,74.827Zm-5.682.274a.268.268,0,0,0,.274-.274H54.706a2.246,2.246,0,0,0-1.3.274,1,1,0,0,0-1.027.548h2.054C54.979,75.648,55.185,75.648,55.459,75.1Zm2.875-.274c0-.274-.274-.274-.548-.274-.548,0-1.027,0-1.027.753-.274.274.274.274.548.274C57.786,75.648,58.06,75.374,58.334,74.827ZM12.192,75.1c0-.274,0-.274-.274-.274H11.37a.589.589,0,0,0,.548.548A.268.268,0,0,0,12.192,75.1Zm32.929-1.027h-.274c0,.274-.274.548-.548.753V75.1C44.847,74.827,44.847,74.347,45.121,74.074ZM12.466,73.8a2.246,2.246,0,0,0,1.3-.274,3.625,3.625,0,0,0,1.575-.548l.274-.274h-.274c-1.027,0-2.054-.753-2.875-.274h-.548c-.274-1.3-.753-.274-1.027,0h-.753c-.548-.548,0-.548.274-.753,0-.274.274-.548.548-.753v-.548c-.548-.274-.548,0-.548.274L8.837,72.225a.589.589,0,0,1-.548.548c-.753-.548-1.027-.274-1.3.274H5.962c-.274-.548,0-.753.274-.753.548-.274.753-.753,1.027-1.027v-.548a.268.268,0,0,0-.274.274,2.459,2.459,0,0,1-3.355.274c-.548-.274-1.027-.548-.753-1.3.274-.274.548-.753-.274-1.027h-1.3c-.548.548-.274,1.027,0,1.575,1.3,2.875,3.9,3.355,6.709,3.9A27.914,27.914,0,0,0,12.466,73.8Zm49.5-.205c0-.548-.548-.274-.753-.274-.274,0-.753,0-.753.274,0,.753.548.274,1.027.548A.767.767,0,0,0,61.962,73.594Zm2.054,0c0-.548-.548-.274-.548-.274-.548-.274-.753,0-.753.548,0,.274.274.274.548.274C63.742,74.074,64.016,73.8,64.016,73.594Zm-4.929,0h-.548c-.274,0-.548-.274-.753.274h.548A2.03,2.03,0,0,0,59.087,73.594Zm5.956-1.575c.274-.548-.274-.274-.548-.274s-.753,0-.753.548c0,.274.274.274.548.548A.925.925,0,0,0,65.043,72.02Zm-2.328.274c0-.274-.274-.274-.548-.274,0,0-.548,0-.548.274s.274.274.548.274S62.715,72.567,62.715,72.294ZM22.8,70.993c.548-.274,1.3-.274,1.78-.548,2.875-1.027,5.682-2.328,8.558-3.628.274-.274.548-.274.548-.548h-3.9c-.548.274-.753-.274-.274-.753a3.222,3.222,0,0,0,.753-1.78c.548-1.575,1.027-3.149,1.575-4.381,0-.274.274-.753.548-.548.274,0,0,.274,0,.548a27.123,27.123,0,0,0-.753,4.176,13.17,13.17,0,0,1,1.3-2.6c0-.274.274-.753.548-.548.274,0,0,.274,0,.548-.274.753-.548,1.575-.753,2.328-.274.548-.548,1.3-.274,1.575.548,0,.753-.753,1.027-1.3a24.741,24.741,0,0,1,1.3-4.381c.274-.274.274-.548.548-.274.753,1.027.753.274,1.027-.274,0-.274.274-.753.274-1.027a.274.274,0,1,1,.548,0v.753c-.274.274-.274.548,0,.548s.274-.274.548-.548c.274-.753.548-1.575.753-2.328,0-.274,0-.753.274-.753.548.274.274.548.274,1.027-.274.548-.274,1.027-.548,1.575V58.4c.274-.274.274-.274.274-.548a3.642,3.642,0,0,0,.548-1.78c0-.274.274-.753.548-.753.548.274.274.548.274,1.027-.274.753-.548,1.78-.753,2.6,0,.274,0,.548.548.753.274,0,.274-.274.274-.548a11.115,11.115,0,0,0,1.027-2.875c.274-.548.548-1.027,0-1.575-.548-1.027,0-1.78.753-2.6.274-.274.548-.274.548-.753,0-.548.274-.548.753-.548.753.274,1.575.274,1.78,1.3a1.39,1.39,0,0,1-.753,1.78,5.161,5.161,0,0,0-1.027,1.575c0,1.027-.274,2.054-.274,3.081a1.9,1.9,0,0,0-.548,1.027c-.274.274-.274.548-.753.548-.274-.274-.274-.548,0-.753A14.794,14.794,0,0,0,42.451,56c0-.274.274-.753,0-.753-.548,0-.548.274-.548.548-.548,1.78-1.027,3.628-1.575,5.408.274,0,.548,0,.548-.274.274,0,.548-.274.753-.274.274.274,0,.548,0,.753-.274.274-.548.548-.274.753.274,0,.548-.274.753-.274,1.575-.753,2.875-1.848,4.381-2.328,3.628-1.575,6.983-3.9,10.611-5.408a28.681,28.681,0,0,1,4.381-1.3c.548-.274,1.027-.274,1.3-.753-.548,0-1.027-.274-1.575-.274a.848.848,0,0,1-.548.274,90.508,90.508,0,0,0-8.831,3.355h-.753a.589.589,0,0,1,.548-.548,3.931,3.931,0,0,0,2.328-2.6c0-.274.274-.548,0-.548a.848.848,0,0,0-.548.274c-.548.548-.548,1.3-1.027,1.78,0,.274-.274.548-.548.274-.274,0,0-.274,0-.548,0,0,.274-.274,0-.274l-.274.274c-.753.548-1.027,1.575-1.575,2.6a.268.268,0,0,1-.274.274c-.548,0-.274-.274-.274-.548.274-1.027.753-2.054,1.027-3.081.548-1.027.753-2.328,1.3-3.355,0-.274.274-.548.548-.274.274,0,0,.274,0,.548,0,.548-.274,1.027-.274,1.575-.274.274-.274.548,0,.548a.848.848,0,0,0,.548-.274c0-.274.274-.548.274-.753.548-.753.753-1.78,1.3-2.328a3.788,3.788,0,0,0,1.3-1.575,35.685,35.685,0,0,0,2.054-4.381c.274-.274.274-.548.753-.274.548,0,0,.548,0,.548-.753,1.3-1.027,2.875-2.054,3.9,0,.274-.274.274,0,.548.548.753,0,1.3-.274,2.054,0,.274-.548.548,0,.753.548.274.753,0,.753-.548a31.967,31.967,0,0,1,4.176-8.01c0-.274.274-.753-.274-.753-.753-.548-.274-.753.274-1.027.274-.274.548-.274.753-.548.274-.274.548-.274.548-.548H61.62a11.961,11.961,0,0,0-4.655,3.355c0,.274-.274,1.78-1.3.274H55.39c-1.848.274-2.054.753-2.054,2.6a2.483,2.483,0,0,1-1.3,2.328c-1.848.753-3.355,1.027-4.655-.548a.589.589,0,0,0-.548-.548c.274-.274.274-.548-.274-.274-.205,0-.479.411-.479.822a.431.431,0,0,1,0,.411,3.823,3.823,0,0,1-.548.342c-1.027.548-1.027,1.575-1.848,2.328-.274.274-.753,1.027-1.027.274H41.9c-1.027.753-2.328,1.027-3.081,2.054-.274.274-.548.753-1.027.274-.548-.548-.753,0-1.3.548l-1.575,1.575c-.274.274-.548.753-.753.548-.548-.548,0-.753.274-1.027,0-.274.548-.274.274-.753-.274,0-.548.274-.753.548l-3.081,3.081c0,.274-.274.753-.548.548-.274-.274,0-.548,0-.753a10.367,10.367,0,0,1,1.575-1.78c0-.274.274-.274.274-.548h-.548a4.233,4.233,0,0,0-3.081,4.381c0,.548,0,1.027-.753,1.3a4.764,4.764,0,0,0-1.848.548c-1.027.274-1.78-.548-2.328-1.027-.548-.548.274-.753.274-1.027a.268.268,0,0,1,.274-.274v-.753a.956.956,0,0,0-.548.274,20.157,20.157,0,0,0-2.6,2.875c-.274,0-.274.548-.753.274-.274-.274,0-.548.274-.753,0-.274.274-.548.548-.753a22.233,22.233,0,0,1,2.6-2.328c0-.274.274-.274.274-.548s-.548,0-.753-.274c-.274,0-.274.274-.548.548a46.67,46.67,0,0,0-5.2,5.2c-.274.274-.548.753-1.027.548-.274-.548.274-.753.548-1.027a.956.956,0,0,1,.274-.548,21.107,21.107,0,0,1,3.628-3.355.589.589,0,0,0,.548-.548H20.2c-.753.753-1.575,1.3-2.328,2.054a32.673,32.673,0,0,0-3.081,3.081h-.548c-.274,0-.274-.274,0-.548a.589.589,0,0,1,.548-.548,21.106,21.106,0,0,1,3.628-3.355c0-.274.274-.274.274-.548h-.274c-2.054,0-3.9.274-5.2,2.054A7.275,7.275,0,0,1,11.165,61c-.274.274-.548.548-.753.274-.274-.548,0-.548.274-.753.274-.548.753-.753,1.3-1.3l.274-.274h-.548A3.928,3.928,0,0,0,8.837,62.3a2.855,2.855,0,0,1-3.081,2.328c-1.027,0-1.848-.548-2.6-.548-.548-.274-.753,0-1.027.274a4.168,4.168,0,0,0-1.3,2.875c0,.548,0,.753.548.548a3.03,3.03,0,0,0,2.054-.753c0-.274.548-.548.753-.274.274.274.274.548,0,.753-.274.548-.274.753.274.753.274.274.274.274.274.548-.274.274-.548.548-.274.753.548.274.548-.274.753-.548,0-.274.274-.274.274-.548.274-.274.274-.548.548-.274v.548a1.877,1.877,0,0,1-.548,1.575.379.379,0,0,0,0,.548c.274.274.548-.274.548-.274a5.162,5.162,0,0,0,1.027-1.575c.753-1.027.753-.548,1.575-.753,1.027-.274,1.575-.274,2.054.274h.274c.274-.274.548-.548.753-.274,0,.274-.274.274-.274.548s-.274.548.274.753c.274,0,.274-.274.548-.548a8.325,8.325,0,0,1,1.027-1.848c0-.274,0-.753.548-.548.274.274,0,.548,0,.753-.548,1.027-1.027,2.054-1.575,2.875-.274.274-.274.753,0,.753.274.274.548-.274.548-.274.548-1.3,1.027-2.328,1.575-3.355,0-.274,0-.548.548-.548.274.274.274.548,0,.753-.274.753-.548,1.575-.753,2.328.753-.274.753-1.027,1.027-1.575a5.28,5.28,0,0,0,1.027-2.054c0-.274.274-.753.548-.753.274.274,0,.753,0,1.027s-.274.548-.274.753c-.274,1.027-.753,2.054-1.027,3.081-.274.274-.274.548,0,.753,0-.274.274-.274.274-.548,1.027-1.575,1.3-3.355,2.054-5.2.274-.274.274-.753.548-.548.274,0,.274.548,0,.753-.548,1.575-.548,3.628-1.575,5.408-.274.274,0,.548.274.548C18.9,71.472,21.023,72.02,22.8,70.993Zm-14.24.274a6.6,6.6,0,0,0,1.3-1.575v-.274H9.317c-.274.548-.753,1.027-1.027,1.575C8.29,71.267,8.563,71.472,8.563,71.267Zm5.477-.274h-.548v.274C13.766,71.267,13.766,70.993,14.04,70.993Zm13.966-.822c-.274,0-.753,0-.753.274s0,.274.274.274C27.732,70.445,28.006,70.445,28.006,70.171Zm10.885-.479c0-.274,0-.548-.548-.548a12.712,12.712,0,0,0-.753,1.3.268.268,0,0,0,.274.274C38.617,70.445,38.617,70.171,38.891,69.692Zm-1.575.274c.548-.753,1.027-1.78,1.575-2.6,0-.274.274-.274,0-.548h-.548a4.658,4.658,0,0,0-2.054,2.875c0,.274,0,.548.274.548C37.043,70.445,37.043,69.966,37.317,69.966Zm-.753-1.848h-.548c0-.274,0,0-.274.274h.274C36.29,68.391,36.29,68.118,36.564,68.118Zm4.108-.479c.753-1.027,1.575-1.78,2.328-2.875a.268.268,0,0,0,.274-.274h-.479a18.647,18.647,0,0,1-2.328,2.328c-.274,0-.274.274-.274.548-.274,0-.274.274,0,.548A1.177,1.177,0,0,0,40.671,67.638Zm-3.081-1.3c0-.274,0-.274-.274-.274l-.753.753h.274A1.365,1.365,0,0,0,37.591,66.338Zm3.081-1.575a.268.268,0,0,0-.274-.274,1.282,1.282,0,0,0-1.027.548c0,.274,0,.548.274.548S40.4,65.037,40.671,64.763Zm-.753-3.355c-.753-.548-1.3-.479-1.575.548,0,.274-.274.274-.548.548-.753,0-1.575,0-2.054.753-.274.274-.548.548-.753.274-.274-.274-.274-.548,0-.548.274-.548.274-1.027.548-1.575v-.548c-.274,0-.274.274-.548.274-.274.274-.274.548-.274,1.027a2.906,2.906,0,0,1-.753,2.328c0,.274-.274.274-.274.548h.548A10.036,10.036,0,0,0,39.918,61.408Zm9.584,2.6c.274-.753.753-1.575,0-1.78-.548-.548-1.027.274-1.3.753-.548.274-.753,1.027-1.027.753-.753,0-1.575.274-1.575.548,0,.753,1.027.753,1.575.753h.548A1.589,1.589,0,0,0,49.5,64.01ZM7.81,62.435c.274-.753.274-1.3.548-1.848,0-.548-.274-.753-.548-.548a41.6,41.6,0,0,0-3.628,2.6c-.274,0-.548.548,0,.548s1.027.548,1.848.548A1.545,1.545,0,0,0,7.81,62.435Zm23.824,1.027a.268.268,0,0,0-.274.274A.268.268,0,0,0,31.635,63.462Zm14.24-2.054c0-.548-.274-.548-.548-.274-1.027.274-1.78,1.3-2.6,2.054,0,.274,0,.548.274.548C43.547,63.736,45.6,61.888,45.874,61.408Zm.548,1.3v-.274c-.548,0-.753.548-1.027.753-.274.274,0,.274,0,.274A4.43,4.43,0,0,0,46.422,62.709Zm2.533-1.848a.268.268,0,0,0,.274-.274h-.274c-.548.548-1.3.548-1.78,1.027v.548h.548A2.837,2.837,0,0,0,48.955,60.861Zm1.848.822.274-.274a.268.268,0,0,0-.274-.274l-.274.274A.268.268,0,0,0,50.8,61.682Zm-10.611-.548c-.068.068-.137.205-.274.274h0A.268.268,0,0,0,40.192,61.135Zm-2.328-.548c-.274,0-.274.274-.274.548h.274Zm-1.027,0v-.274c-.274,0-.274,0-.274.274Zm-9.379-2.054c0-.753-.753-.548-1.3-.548H25.2a.883.883,0,0,0-.342.753c0,.753.274.753.753.753C26.431,59.286,27.458,59.56,27.458,58.533Zm33.682.548a8.648,8.648,0,0,1,2.328-1.027,15.527,15.527,0,0,0,1.711-.411v.685a24.477,24.477,0,0,0-3.765,1.3h-.548C60.662,59.286,60.935,59.286,61.141,59.081Zm-50.523-1.3a7.209,7.209,0,0,1,2.054-1.027c-.753-.274-1.3-.753-2.054-1.027a.268.268,0,0,0-.274-.274c-.274,0-.274,0-.548.274-.548,1.027-1.575,1.78-2.054,3.081,0,0-.274.274,0,.274h.274C8.837,58.533,9.864,58.259,10.617,57.78Zm40.46.479a.268.268,0,0,0-.274-.274,3.832,3.832,0,0,1-1.3.753h.274C50.05,58.533,50.8,58.807,51.077,58.259Zm2.328,0v-.274c-.274.274-.548.274-.548.548C53.131,58.533,53.131,58.533,53.4,58.259ZM14.246,57.232a.268.268,0,0,0-.274-.274c-.274.274-.753.274-1.027.753l.274.274A2.108,2.108,0,0,0,14.246,57.232Zm44.294.274h-.548a.268.268,0,0,1-.274.274h.274C58.334,57.78,58.539,57.78,58.539,57.506Zm-3.355-1.3v-.274h-.274a4.913,4.913,0,0,0-2.054,1.3v.274h.274A5.281,5.281,0,0,0,55.185,56.206Zm3.355-1.027V54.9h-.548c-1.3,0-1.78,1.3-2.6,2.328,0,0-.274.274,0,.274h.274A7.681,7.681,0,0,0,58.539,55.179Zm-31.56.274c.274-.548,0-.274-.274-.274a2.117,2.117,0,0,0-2.054,1.3c-.274.274,0,.548.274.548A17.85,17.85,0,0,0,26.979,55.452Zm36.01.753.548-.548H62.51a1.908,1.908,0,0,1-1.3.548c-.274.274-.753.274-.274.548C61.688,57.027,62.168,56.206,62.989,56.206Zm-43.814-.274a38.883,38.883,0,0,0,5.2-1.027,21.131,21.131,0,0,0,6.709-2.328c.274-.274,1.027-.274.753-.753,0-.548-.548,0-.753,0h-.274c-.753-1.027-1.3,0-1.575.274a4.343,4.343,0,0,1-.753.548c0-.753-1.027-1.027-.753-1.575.548-.753.753-1.575,1.3-2.054,0-.274.274-.753.548-.548.548,0,0,.548,0,.753v.548c.274,0,.274-.274.274-.548,1.027-2.328,2.875-3.9,4.381-5.682,0-.274.548-.548.548-1.027-.548,0-1.027,0-1.3.548l-.753.753a19.361,19.361,0,0,0-2.054,2.054c-.274.274-.548.548-.753.274-.274-.548,0-.548.274-.753l2.054-2.054s.548-.274.274-.548c0-.274-.548,0-.753.274a42.59,42.59,0,0,0-3.081,3.628c-.548,0-.753-.274-.274-.753a20.855,20.855,0,0,1,2.054-2.328c.274-.274.753-.753.274-1.027-.274-.274-.548.274-1.027.274a.956.956,0,0,1-.274.548,15.651,15.651,0,0,1-2.328,2.054c-.274.274-.548.753-.753.548-.548-.274,0-.753.274-.753l2.328-2.328c.274-.274,1.027-.548.548-1.027H28.485c-.274.274-.548.274-.548.548-1.027.753-2.054,1.848-3.081,2.6,0,.274-.274.548-.548.274s0-.548.274-.753c0-.274.274-.274.274-.548a22.763,22.763,0,0,1,3.081-2.328c.274-.274.753-.274.548-.753H27.459a42.52,42.52,0,0,0-3.9,3.355c-.548.274-.753,1.3-1.575.753-.753-.274-1.575.274-2.328-.274-.548-.274-.753-.548-.548-1.3a2.441,2.441,0,0,1,3.355-.548c.548.753.753.548,1.3,0A9.135,9.135,0,0,1,26.842,40.6c.274-.274.753-.548.548-1.027-.548-.548-.753,0-1.027.274-1.027.753-2.328,1.575-3.355,2.328-.274.274-.274.548-.548.274a.379.379,0,0,1,0-.548l1.575-1.575c.274-.274.548-.548.753-.548.274-.274.548-.274.753-.548a3.252,3.252,0,0,1,1.3-.753c.548-.274.274-1.027,0-1.3h-.753c-.753.274-1.027,1.027-1.78.753a3.292,3.292,0,0,0-2.054,1.027,1.4,1.4,0,0,1-1.027.548c-1.575.274-2.328,1.575-3.081,2.875-.753,2.6-2.875,3.355-5.2,2.054-.548,0-.753,0-1.027.274a7.914,7.914,0,0,0-3.9,6.435,2.665,2.665,0,0,0,1.027,2.6,13.71,13.71,0,0,0,5.408,2.6A8.114,8.114,0,0,0,19.175,55.932Zm8.558.274a9.2,9.2,0,0,0,1.78-1.848c.274,0,.274-.274,0-.274h-.274a11.128,11.128,0,0,1-1.848,1.78c-.274,0-.548.274-.274.548C27.253,56.479,27.458,56.479,27.732,56.206Zm32.382-1.027a.814.814,0,0,0,.753-.274c.274,0,.274,0,.548-.548h-.548a1.757,1.757,0,0,0-1.027.274c-.274.274-.753.753-.753,1.027C59.361,55.932,59.84,55.452,60.114,55.179Zm-17.868-1.3a18.516,18.516,0,0,0,1.78-1.027c.274-.274,0-.548-.274-.753-.274-.274-.548-.548-.753-.274a10.778,10.778,0,0,0-1.3,1.848C41.767,53.878,41.767,54.152,42.246,53.878Zm-8.01-1.78c.274,0,.274-.274,0-.274-1.027.753-2.054.753-2.875,1.848l-.274.274h.274C31.635,54.152,34.236,52.577,34.236,52.1Zm25.125,0a.956.956,0,0,0,.274-.548c-.274-.274-2.6-.274-3.081.274-.274.274-.274,1.027-.753.753-.548-.274,0-.753.274-1.027v-.274A.848.848,0,0,0,55.527,51c-.753.753-.753,1.575-1.3,2.328h.548A32.854,32.854,0,0,0,59.361,52.1ZM36.29,51.824c.274-.274,0-.274-.274-.274a.589.589,0,0,0-.548.548.268.268,0,0,0,.274.274C36.016,52.1,36.29,52.1,36.29,51.824Zm3.628-1.848a.956.956,0,0,1,.274-.548h-.548l-1.3,1.3A.268.268,0,0,1,38.07,51a.268.268,0,0,0,.274.274C38.891,50.8,39.371,50.523,39.918,49.976Zm-8.557,0c.548-1.027,1.027-1.848,1.575-3.081,0-.274.274-.548,0-.753-.274-.274-.753,0-.753.548a18.029,18.029,0,0,0-1.848,3.628c0,.274,0,.548.548.548C30.813,50.523,31.087,50.25,31.361,49.976Zm5.477-.274c2.054-1.027,3.628-2.6,5.682-3.628s4.176-2.6,6.23-3.9c2.328-1.575,4.929-2.875,7.257-4.655.274-.274.548-.274.548-.548H55.8C54.774,38,53.2,38,52.172,39.022c-.274.274-.548.548-.753.274-.548-.274,0-.548.274-.753a13.494,13.494,0,0,0,2.054-4.381c0-.274.548-.548,0-.753-.753-.274-.548-.548-.274-1.027.548-.753,1.3-1.575,1.848-2.328a.956.956,0,0,1,.274-.548c-.274-.274-.548,0-.548.274-1.848,1.027-2.6,2.875-3.081,4.929a14.384,14.384,0,0,1-2.054,5.477c0,.274-.274.548-.548.274-.274,0-.274-.274-.274-.548.274-.548.548-1.3.753-1.848,0-.274.274-.548,0-.548H49.3c-.274.548-.274.753-.548,1.027-.548,1.027-.753,2.328-1.3,3.628-.274.274-.548.548-.753.274s0-.548,0-.753c.548-1.027.753-2.054,1.3-3.149V38c-.274,0-.274,0-.548.274-.274,1.3-.753,2.328-1.027,3.355-.274.753-.753,1.575-1.3,1.3-.753-.274-.753.274-1.027.753l-.753.753c0,.274-.274.548-.548.274-.548-.274-.274-.548,0-.753,1.027-1.575,1.3-3.355,2.054-5.2V38.2a.268.268,0,0,0-.274.274,7.968,7.968,0,0,0-1.78,3.355,10.42,10.42,0,0,1-1.575,3.9c-.274.753-.753.753-1.027.548-.753-1.027-1.027-.274-1.3.548-.274.274-.274.548-.548.753H37.8c-.274,0,0-.274,0-.548a.956.956,0,0,0,.274-.548c0-.274.548-.753,0-1.027s-.548.274-.753.753a10.233,10.233,0,0,1-1.027,1.78c-.274.274-.548.548-.753.274-.274,0-.274-.274-.274-.548-.753.548-1.027,1.575-1.78,2.328-.274.274.274.274.548.274A6.332,6.332,0,0,0,36.837,49.7Zm21.5,0c1.027-2.6,2.6-4.929,3.628-7.257.548-1.027,1.027-1.78,1.575-2.875V39.3h-.548c0,.274-.274.548-.548.753-1.78,2.807-3.9,5.682-4.655,9.311-.274.274-.548.548-.274.753C58.06,50.523,58.06,49.976,58.334,49.7Zm-3.355,0v-.274c-.274,0-.274.274-.274.548A.268.268,0,0,0,54.979,49.7ZM44.573,47.169c.274,0,.274,0,.274-.274h-.274c-1.027.753-2.328,1.027-3.081,2.328,0,0-.274.274,0,.274h.548A8.1,8.1,0,0,0,44.573,47.169Zm10.406,2.259v0ZM36.29,46.347h-.274c-.548.274-.753.753-.753,1.575A1.649,1.649,0,0,0,36.29,46.347Zm-1.848.274c0-.274,0-.274-.274-.274a.956.956,0,0,0-.274.548c-.274,0,0,0,0,.274C34.236,46.895,34.236,46.621,34.441,46.621Zm15.609.274a3.2,3.2,0,0,0,1.575-.274c.753-.548,1.3-1.3.753-1.848-.753-.548-.274-1.027,0-1.575.274-.274.274-.548,0-.753,0,0-.548,0-.548.274-.753,1.027-1.848,1.78-2.328,2.875-.274.548-.753.548-.548,1.027C49.229,47.169,49.776,46.895,50.05,46.895Zm-3.9-.205h0v0Zm3.354-2.4c.274-.274,0-.274-.274-.274a2.825,2.825,0,0,0-1.3,1.027.589.589,0,0,0,.548.548C48.75,45.047,49.229,44.841,49.5,44.293Zm-11.912,0a.941.941,0,0,0,.274-.753c.274-.274.548-1.027.753-.753.548.274,0,.753,0,1.027-.274.274-.548.753,0,.753s.548-.548.753-.753c0-.274.548-.753,0-.753-.753-.548-.274-.753,0-1.027a4.966,4.966,0,0,1,.753-1.027,7.419,7.419,0,0,1,1.78-2.054c0-.274,0-.274-.274-.274,0,0-.548.274-.548.548-1.575,1.575-2.875,3.081-4.381,4.655-.274.274-.753.753-.274,1.027C36.837,45.32,37.317,44.841,37.591,44.293Zm-2.6.548.274-.274a16.923,16.923,0,0,1,2.875-3.355.268.268,0,0,0,.274-.274h-.548c-.548,0-3.081,2.6-3.081,3.355C34.441,44.567,34.441,44.841,34.989,44.841Zm5.956-.548a1.9,1.9,0,0,0,.548-1.027,7.835,7.835,0,0,1,1.575-4.176c1.027-1.027,1.78-2.328,2.875-3.355,0-.274.274-.274.274-.548v-.274c-.274,0-.274.274-.548.274a13.381,13.381,0,0,1-1.575,2.054c-2.054,1.848-2.875,4.176-3.9,6.5,0,.548-.274.753,0,1.027C40.671,45.047,40.945,44.567,40.945,44.293Zm-23.55-2.6v-.274c-.274-.274-.274,0-.548.274a6.237,6.237,0,0,1-1.3,1.78l-.274.274c-.274,0,0-.274-.274-.548,0-.274.753-.548.548-.753-.548-.274-.753.274-1.3.274-.274.274-.548.274-.753.548a.589.589,0,0,0-.548.548c.274.274.548.274.753.548h.548A3.025,3.025,0,0,0,17.395,41.692Zm3.355,2.328c.274,0,.753,0,.753-.548a.589.589,0,0,0-.548-.548c-.548,0-1.027,0-1.3.753C19.722,44.293,20.2,44.02,20.749,44.02Zm23.824-1.506.274-.274a9.41,9.41,0,0,0,1.575-3.081c0-.274.274-.548-.274-.274,0,0-.548-.274-.548.274a8.373,8.373,0,0,0-1.027,2.875Zm6.5-.548c-.274,0-.548,0-.548.274C50.8,42.24,50.8,41.966,51.077,41.966Zm.274-.274v-.274c-.274,0-.274.274-.274.548A.268.268,0,0,1,51.351,41.692Zm1.78-.479v0Zm1.027-.274v-.274a1.4,1.4,0,0,1-1.027.548C53.679,41.487,53.884,41.213,54.158,40.939Zm3.9-1.3a.941.941,0,0,0,.274-.753c0-.205-.548-.274-.548-.274-.274.274-1.027.274-.548,1.027,0,.274-.548.274-.274.548h.274C57.512,39.912,57.786,39.912,58.06,39.638ZM20.749,36.763a9.328,9.328,0,0,0-2.328,2.328c0,.274,0,.548.274.548C19.175,39.364,21.023,37.311,20.749,36.763Zm42.24.822c.753-.274,1.027-1.027,1.575-1.575,0-.274-.274-.274-.548-.274a8.4,8.4,0,0,0-3.081,2.054l-.548.548h1.027C61.962,38.064,62.442,37.858,62.989,37.584Zm-4.45-1.027c.274,0,0-.274,0-.274-.753,0-1.027.548-1.3,1.027h.274C57.786,37.037,58.334,37.037,58.539,36.558ZM44.847,34.983A37.314,37.314,0,0,0,48.2,31.9a.589.589,0,0,0,.548-.548A.941.941,0,0,0,48,31.081c-.753,0-1.3,0-1.3,1.027a16.449,16.449,0,0,0-.753,1.575H45.19c-.548-.274,0-.274,0-.548.274-.753.548-1.3.753-1.848,0-.274.274-.548,0-.548-.274-.274-.548,0-.548.274a1.469,1.469,0,0,0-.274,1.027c-.548,1.027-.753,2.328-1.848,3.081a1.752,1.752,0,0,0-.753,1.78C43.273,36.284,44.026,35.736,44.847,34.983Zm1.3,1.78v.274H46.7C46.422,36.763,46.422,36.763,46.148,36.763Zm2.6-.205c.274-.753,1.027-1.3,1.3-2.054a4.532,4.532,0,0,0,1.3-1.848l.274-.274h-.274A9.908,9.908,0,0,0,48,36.558c-.274.274-.274.274.274.274C48.476,36.763,48.75,36.763,48.75,36.558ZM37.043,34.983v-.274a2.451,2.451,0,0,0-1.027,1.3c0,.274,0,.274.274.274C36.837,36.01,36.837,35.462,37.043,34.983Zm25.946-.274v-.548h-.548l-1.3,1.3C61.688,35.257,62.168,34.983,62.989,34.709Zm-3.355-1.575a.268.268,0,0,0,.274-.274c0-.548-.274-.548-.274-.753h-.548c0,.274-1.027,2.875-1.027,2.875l.274.274C59.361,34.983,59.361,33.956,59.635,33.135Zm-29.575.274c1.027,0,1.027-1.027,1.848-1.575h-.274c-1.027,0-.548-.548-.274-.753.274-.548,0-1.3.548-1.78.274,0,.274-.548.274-.548a.956.956,0,0,0-.548.274,55.381,55.381,0,0,0-2.875,5.2C29.307,33.956,29.581,33.408,30.06,33.408Zm31.628-1.027h-.274a1.346,1.346,0,0,0-.753,1.3c-.274,0,0,.274,0,.274C61.141,33.682,61.415,32.929,61.688,32.381Zm-29.575.753c0-.274,0-.274-.274-.274-.274.274-.274.548-.548.548,0,.274,0,.274.274.274C31.908,33.682,31.908,33.408,32.114,33.135Zm-5.682-1.506v-.274a2.986,2.986,0,0,0-1.3,1.3l-.548.548-.274.274h.274A5.948,5.948,0,0,0,26.431,31.628Zm23.619.753v-.274c-.753,0-1.027,1.027-1.575,1.3h.274C48.955,33.135,49.776,32.929,50.05,32.381Zm-6.024-.274s.274-.274,0-.274-.274.274-.548.548v.753C43.82,32.655,44.026,32.381,44.026,32.108ZM64.29,31.081c0-.274,0-.274-.274-.274a1.346,1.346,0,0,0-.753,1.3c0,.274-.274.548,0,.548C64.016,32.381,64.016,31.628,64.29,31.081ZM50.8,31.628c.274-.548.753-.753,1.027-1.3v-.274a2.412,2.412,0,0,0-1.575,1.575c-.274,0-.274.274-.274.548C50.256,31.9,50.529,31.9,50.8,31.628Zm9.858-.548v-.274c-.274.274-.548.274-.548.548a.268.268,0,0,0,.274.274C60.388,31.355,60.388,31.081,60.662,31.081Zm2.054-1.3c0-.274,0-.548-.548-.548-.753,0-.274.753-.548,1.3,0,0-.274.548,0,.548A2.57,2.57,0,0,0,62.715,29.78Zm-13.76-2.054V28h.274C49.229,27.726,49.229,27.726,48.955,27.726ZM52.583,24.1a4.194,4.194,0,0,0-.274,1.78A1.954,1.954,0,0,0,52.583,24.1Zm1.848-.753a4.139,4.139,0,0,0,.753-2.054c0-.274,0-.548-.274-.548a.956.956,0,0,0-.274.548,5.71,5.71,0,0,1-.548,1.78C54.158,23.345,54.158,23.55,54.432,23.345Zm8.01-.822h-.274l-.274.274h.274A.268.268,0,0,1,62.442,22.523Zm-5.682-2.054c0-.274,0-.274-.274-.274a.268.268,0,0,0-.274.274,3.625,3.625,0,0,0-.548,1.575.268.268,0,0,0,.274.274C56.759,21.77,56.485,21.017,56.759,20.469Zm-8.831-2.6a.462.462,0,0,0-.274.411A.629.629,0,0,0,47.928,17.868Zm0,0v0Zm0-.274c.274,0,.548-.274.274-.548h-.274a.522.522,0,0,0,0,.548.1.1,0,0,0,0,.137Zm1.3-1.506a.848.848,0,0,1-.548-.274c0,.274-.274.274-.274.548h.548C48.955,16.293,49.229,16.293,49.229,16.088Zm5.956-1.848a1.282,1.282,0,0,0-.548-1.027c-.274-.274-.274.274-.548.548-.548.548-.753,1.3-1.3,1.78-.274.548,0,.753.548.753S55.459,14.787,55.185,14.24Zm9.105,1.3v-.274c-.274,0-.274.274-.274.548v.274C64.29,16.088,64.29,15.814,64.29,15.54Zm-11.707-.753a.589.589,0,0,0,.548-.548c0-.274,0-.548-.274-.274-.274,0-.753,0-.753.548C52.378,14.787,52.378,15.061,52.583,14.787Zm11.707-1.3c-.274,0,0-.274-.548-.548-.548,0-.548.548-.753.753,0,.274,0,.548.274.548C63.742,14.24,64.016,13.966,64.29,13.487Zm.753.274v-.548a.274.274,0,1,0,0,.548Zm-8.558-1.3c-.274,0-.753,0-.753.274v.274C56.212,12.939,56.212,12.939,56.485,12.46Zm-.274-1.027a.268.268,0,0,0-.274-.274c-.548,0-.753,0-1.027.548-.274.274,0,.274.274.274A1.619,1.619,0,0,0,56.212,11.433Zm4.176-1.1c.753-.548,1.3-1.027,2.054-1.575-.274-.274-.274-.274-.548-.274a9.114,9.114,0,0,0-2.6,1.575c-.274.274-.274.274,0,.548A1.558,1.558,0,0,0,60.388,10.337Zm-.753-1.232c.548-.274.274-.274,0-.548-1.3-.274-1.848.753-2.6,1.3,0,0-.274.274,0,.274,0,.274.274.274.548.274A7,7,0,0,0,59.635,9.105Zm3.834-1.1c.274,0,.548,0,.753-.548H63.195a.956.956,0,0,0-.548.274C62.989,8.284,63.263,8.284,63.468,8.01Z" transform="translate(65.941 1393.153) rotate(180)"/>
    <path id="Path_1708" data-name="Path 1708" class="cls-1" d="M9.476,25.9v-.472A36.074,36.074,0,0,0,11.482,22.3c.236-.472.472-.649-.236-1.121-.649-.236-1.121-.649-.885-1.357,0-.472-.236-.472-.472-.472a1.936,1.936,0,0,0-1.121.236H7.411c-.649-.649-.885-.236-1.357.236a8.669,8.669,0,0,1-2.006,3.363c0,.236-.236.649-.472.236-.236,0,0-.236,0-.472.649-1.121,1.357-2.006,2.006-3.127a2.354,2.354,0,0,0,.472-2.006c-.472-.649.472-2.242,1.357-2.655a14.172,14.172,0,0,1,1.357-.649c.885-.472.885-1.357,1.357-1.77.236-.236,0-.236,0-.236-.472-.472-1.77,0-2.006.472-1.77,2.891-4.012,5.605-6.018,8.26-.236.472-.236,1.121-.472.885-.472-.236,0-.649.236-.885C3.458,19,4.992,16.757,6.349,14.574c.236-.236.649-.649.472-.885a1.028,1.028,0,0,0-1.534.236c-.472.649-.885,1.357-1.357,2.006-.649,1.121-1.357,2.242-2.006,3.363-.236.236-.236.472-.472.236-.236,0,0-.236,0-.472A27.377,27.377,0,0,1,4.107,14.4c.236-.236.885-.472.472-.649-.472-.472-1.121-.885-1.593,0a23.7,23.7,0,0,1-1.534,2.478c0,.236,0,.472-.236.472-.236-.236,0-.472,0-.649a5.423,5.423,0,0,1,1.357-2.478c.649-.472.649-1.357,1.121-2.006.236-.236,0-.236-.236-.236-.472,0-.885-.236-1.357.472A9.953,9.953,0,0,1,.979,14.043c-.236.236-.236.885-.649.649-.236-.236,0-.649.236-.885.472-.885.885-1.77,1.357-2.478,0-.472.236-.472,0-.885A1.662,1.662,0,0,1,2.159,8.2c.472-.472.236-.649-.236-.885-.236,0-.472-.236-.649-.236A1.612,1.612,0,0,1,.389,4.425,3.138,3.138,0,0,1,3.517,2.183a.7.7,0,0,1,.649.236A.955.955,0,0,0,5.523,1.77C5.759.649,6.644.413,7.765.885a6.264,6.264,0,0,1,2.006.885c.472.472.649,0,.885,0,1.593-1.121,2.006-.885,3.363,0A11.486,11.486,0,0,1,16.91,4.425a.231.231,0,0,0,.236.236V4.425c0-.649.236-1.121.236-1.77,0-1.121.472-1.357,1.357-.649.885.649,1.121.236,1.357-.472A1.876,1.876,0,0,1,21.867,0a1.977,1.977,0,0,1,1.77,1.121c.885,1.77,1.77,3.363,1.121,5.369,0,.236,0,.472.472.472,1.121,0,1.121.885,1.357,1.77a12.4,12.4,0,0,1-1.121,4.9,11.671,11.671,0,0,0-1.121,3.776c-.236.472,0,.649.236,1.121A4.465,4.465,0,0,1,25.7,23.9c-.236.236-.236.472-.472.472-.472,0-.236-.472-.236-.649V21.713a7.783,7.783,0,0,0-.885-2.891c-.236-.472-1.77,0-2.242.472-.885,1.357-1.77,2.478-2.655,3.6,0,.236,0,.649-.472.649-.236-.236,0-.649.236-.885a27.966,27.966,0,0,1,1.77-3.127l.236-.236H20.51A4.328,4.328,0,0,0,17.618,21.3a17.688,17.688,0,0,1-2.478,3.363c-.236.236-.236.649-.649.472-.236-.236.236-.472.236-.649.472-.885,1.121-1.534,1.593-2.478.236,0,.472-.236.236-.472h-.472a1.842,1.842,0,0,0-.885.885,13.693,13.693,0,0,0-1.77,2.478c-.236.236-.472.649-.649.472-.236-.236,0-.472.236-.649.649-.885,1.121-1.77,1.77-2.655a.642.642,0,0,0,0-.885c-.472-.472-.472,0-.885.236-1.357.472-2.006,2.006-2.891,3.363-.236.472-.649.885-.885,1.357C9.712,25.9,9.712,26.08,9.476,25.9Zm3.835-6.254.472-.472c1.121-.885,2.478-1.534,3.54-2.478.236,0,.472,0,.472-.236s-.472-.236-.472-.236c-.649,0-1.357-.236-2.006-.236a4.972,4.972,0,0,0-4.012.885,17.3,17.3,0,0,1-2.655,1.77H8.178v-.059a.539.539,0,0,1-.3.177.909.909,0,0,0,.944.118c1.121-.236,2.242-.236,2.891-1.121,0-.236.472-.472.649-.472.472-.236.649-.236.885.236,0,.236-.236.472-.472.649a2.434,2.434,0,0,0-1.121.885c-.236.236-.472.649-.236.885.236.472.472.472,1.121.472C12.839,20.3,13.724,20.769,13.311,19.648Zm2.891.413c.236,0,.649-.236.885-.236.472-1.357,1.77-1.121,2.891-1.77a.7.7,0,0,0,.649-.236c.236,0,.236-.236,0-.472a4.551,4.551,0,0,0-1.77-.885c-.472-.236-.649.472-.885.649-.472,0-.649.236-1.121.472-.649.649-1.357.885-1.357,2.006C15.317,20.061,15.553,20.3,16.2,20.061ZM7.647,18.7a.447.447,0,0,0,.236.118C7.765,18.881,7.706,18.822,7.647,18.7Zm.531,0c0-.177,0-.177.177-.413,2.006-1.77,4.012-3.6,6.9-3.363.472,0,.649-.236,1.121-.236s.649-.236.236-.472a11.035,11.035,0,0,0-3.127-2.655h-.649c0,.472.236.236.472.472.472.472.236.649-.472.649a2.762,2.762,0,0,1-1.357.236c-.649.236-1.121.472-.649,1.357.236.649,0,.885-.649.885a3.936,3.936,0,0,0-2.891,1.357,1.279,1.279,0,0,0,0,1.77C7.529,18.7,7.824,18.94,8.178,18.7Zm14.928-1.062c.472-.472,0-.885-.236-1.357,0-.236-.236-.472-.236-.649-.236-.472-.472-.649-1.121-.472-.649.236-1.593,0-2.242.236h-.885c-.236.236,0,.472.236.472a7.6,7.6,0,0,1,2.891,1.534A2.231,2.231,0,0,0,23.106,17.642ZM17.559,15.4c0-.236-.472-.236-.885-.236-.472,0-.885.236-1.357.236h-.472c.236,0,.236.236.472.236H16.91C16.851,15.4,17.559,16.049,17.559,15.4Zm6.49-.472A16.6,16.6,0,0,1,25.171,11.8a6.1,6.1,0,0,0,.472-3.363c0-.236,0-.649-.472-.649-.236-.236-.472.236-.472.472-.236.472-.236,1.121-.649.885-.649,0-.236-.649-.236-1.121V7.788c.236-1.357.885-2.478.236-3.776a9.387,9.387,0,0,1-1.357,2.655,5.054,5.054,0,0,0-.885,2.478,7.578,7.578,0,0,0,1.534,6.018.508.508,0,0,0,.472.472A2.378,2.378,0,0,0,24.05,14.928Zm-5.192,0c.649,0,1.593-.236,2.242-.236s.885-.472.472-.885a10.1,10.1,0,0,0-2.242-2.242,4.381,4.381,0,0,0-4.72-.649.824.824,0,0,0-.472.236c0,.472.236.472.472.649a12.166,12.166,0,0,1,2.655,2.242C17.8,14.692,17.972,15.164,18.858,14.928ZM5.7,12.686a3.124,3.124,0,0,0,1.357-.472c.649-.472,1.357-.885,2.006-1.357a18.747,18.747,0,0,1,3.363-1.121H12.9c0,.236-.236.236-.472.236a19.786,19.786,0,0,1-2.242,1.121.462.462,0,0,0-.472.472h.649a21.328,21.328,0,0,0,3.776-1.121c.236-.236.649-.236.649-.472,0-.649,0-1.357-.649-1.534-1.121-.236-2.478-.649-3.363-.885-.649,0-1.121,0-1.534.472A12.752,12.752,0,0,0,6.585,10.5a1.457,1.457,0,0,1-1.357.885.832.832,0,0,0-.885.885C4.579,12.922,5.287,12.686,5.7,12.686Zm15.223-2.242V9.795c-.236-.472.236-1.121,0-1.77a10.028,10.028,0,0,1-1.593-4.9.817.817,0,0,0-1.121-.649c-.472,0-.236.472-.236.885a7.707,7.707,0,0,0,.885,3.127c.236.472.236.885-.472.885-.649-.236-.885-.236-1.121-.649a11.878,11.878,0,0,1-.885-1.534c-.649-1.77-2.242-2.478-3.776-3.6h-.649c-.472.472,0,.472.236.649.649,1.77,2.006,3.363,2.478,5.133.236.649.649.649,1.121.885s.472.236.472-.236a7.728,7.728,0,0,0-.649-2.242.824.824,0,0,0-.236-.472c.236-.236.472,0,.649.236a2.323,2.323,0,0,1,.472,1.77A2.8,2.8,0,0,0,18.09,9.559c.649.472,1.357.885,2.006,1.357.236.236.472.885.885.649C21.1,11.565,21.1,10.916,20.923,10.444ZM3.694,10.267c1.593-.236,3.127-.236,4.248-1.77,0-.236.472-.472.649-.649.236,0,.472-.236.236-.472,0-.236-.236-.236-.472-.236-1.593,0-2.891-.649-4.484-.649A3.8,3.8,0,0,1,2.75,6.018c-.236-.236-.649-.236-.472-.472a.355.355,0,0,1,.649-.236,8.681,8.681,0,0,0,4.72.472,1.614,1.614,0,0,0,.885.236,10.74,10.74,0,0,0,4.484,1.357h.649c0-.236-.236-.472-.236-.649a6.193,6.193,0,0,0-2.714-2.478,30.759,30.759,0,0,1-3.363-1.77c-.236-.236-.472-.236-.472-.472h.649a3.505,3.505,0,0,0,1.593.885c.236,0,.236.236.472.236.236-.236,0-.472,0-.649C8.945,1.593,8,1.593,7.116,1.357c-.649-.472-1.121.236-.885.885a1.105,1.105,0,0,0,.472.885c.236.236.236.472,0,.649H6.172L5.936,3.54c-1.593-1.121-3.127-1.121-4.484.236a1.5,1.5,0,0,0,.236,2.478c.472.236,1.121.472,1.534.649a1.634,1.634,0,0,1,1.357.885.642.642,0,0,1,0,.885.7.7,0,0,1-.649-.236c-.236-.236-.472-.472-.885-.236A1.16,1.16,0,0,0,2.4,9.323C2.573,9.795,3.045,10.444,3.694,10.267Zm12.745-.472c0-.472-.472-.472-.885-.649-.236-.236-.236,0-.236.236,0,.472,0,.649.472.649C15.966,10.031,16.438,10.031,16.438,9.795ZM21.1,6.018a44.438,44.438,0,0,1,.649-4.9c.236-.236.649-.472.236-.649-.236-.236-.472.236-.649.472-.885.649-.885,1.534-.649,2.655,0,.472.236.885-.236,1.121-.649.236-.236.649-.236.885a8.189,8.189,0,0,0,.649,1.121C21.1,6.9,21.1,6.667,21.1,6.018Zm1.357-.236c.649-.649.649-1.534,1.593-1.77.236-1.121-.472-1.77-.885-2.655-.236-.236-.472-.236-.649.236a11.9,11.9,0,0,0-.649,4.012c0,.236-.236.649.236.649C22.221,6.431,22.221,6.018,22.457,5.782ZM11.954,3.3a.824.824,0,0,0-.236-.472c-.236-.236-.236-.649-.649-.472-.236,0,0,.236-.236.649h.236c-.236.885.472.885.885,1.121h.472A2.028,2.028,0,0,0,11.954,3.3Z" transform="translate(100.887 1335.022) rotate(-155)"/>
    <path id="Path_1709" data-name="Path 1709" class="cls-1" d="M0,.472C0,.236,0,0,.236,0L.708.472c.472.649.885,1.357,1.357,2.006.236,0,.236.236,0,.472H1.829C1.121,2.065.649,1.18,0,.472Z" transform="translate(89.761 1317.334) rotate(-155)"/>
    <path id="Path_1701" data-name="Path 1701" class="cls-1" d="M8.955,35.189c1.1-.89,2.465-1.78,3.765-2.67.411-.411.685-.685,0-1.1a3.275,3.275,0,0,1-1.575-.89c-1.1-.685-1.575-.685-2.259.205a43.63,43.63,0,0,0-3.355,4.039c-.205.205-.411.411-.685.205-.205-.205.205-.411.205-.685a3.138,3.138,0,0,1,.89-1.1,32.818,32.818,0,0,0,2.875-3.149c.205-.205.685-.479.205-.685h-.89a.756.756,0,0,1-.479.205A56.394,56.394,0,0,1,3.2,34.23H2.52c-.205-.685-.479-.205-.685,0H1.356c0-.205,0-.411.205-.411A17.4,17.4,0,0,0,5.6,29.78H6.08v.205a11.918,11.918,0,0,0-1.232,1.506c1.232-.479,1.917-1.78,2.807-2.67.479-.205,0-.205-.205-.411a19.771,19.771,0,0,1-3.56-6.23V21.77c-.205,0-.479,0-.479.205a35.118,35.118,0,0,1-2.259,2.875c-.205.205-.685.685-1.1.411-.205-.411.205-.89.479-1.1a.756.756,0,0,1,.479-.205,15.508,15.508,0,0,0,2.259-2.875c.205,0,.479-.479.205-.479-.205-.205-.411.205-.411.205-.685.89-1.369,1.575-1.985,2.259H.4c-.205-.205,0-.411.205-.411A11,11,0,0,1,2.862,20.2c.205-.411.479-.685.479-1.1,0-.205,0-.479-.205-.479a.2.2,0,0,0-.205.205c-.685.685-1.1,1.369-1.78,1.985,0,.205-.205.479-.479.205a.284.284,0,0,1,.205-.479,15.02,15.02,0,0,1,1.575-2.259,2.215,2.215,0,0,0,.479-1.78V16.02c-.479,0-.479.205-.685.479-.205.411-.89.685-1.1,1.1-.205.205-.479.685-.685.479s.205-.479.205-.685c.479-.479.89-.89,1.3-1.369.685-.411.685-.89.685-1.78a18.425,18.425,0,0,1,1.1-4.655c.89-2.465,2.67-4.45,4.45-6.435.479-.411.89-.89,1.575-.89a4.567,4.567,0,0,0,1.985-.685A8.157,8.157,0,0,1,16.212,0H26a13.181,13.181,0,0,1,6.914,3.56c1.1.89,1.3,2.465,1.985,3.56a21.806,21.806,0,0,1,1.78,4.039,11.841,11.841,0,0,1,.685,4.655c-.205.89.205,1.985-.411,2.875-.205.685-.479,1.369-.685,2.259a17.173,17.173,0,0,1-3.56,6.23c-1.78,1.985-4.45,2.67-6.23,4.45A16.449,16.449,0,0,1,23.811,33c-.205,0-.479.411-.685.205-.205-.411,0-.685.479-.89a.2.2,0,0,0,.205-.205h-.342a26.257,26.257,0,0,1-4.245.411c-.685.205-1.369.205-1.78.89a19.55,19.55,0,0,0-2.259,1.985c-.205.205-.411.685-.685.205-.479-.411,0-.411.205-.685.685-.685,1.3-1.1,1.985-1.78,0-.205.205-.205.205-.411h-.479a.68.68,0,0,0-.89.205,23.009,23.009,0,0,0-3.56,2.67h-.89c-.205-.205.205-.411.479-.685.89-.685,1.78-1.3,2.67-1.985.205-.205.685,0,.685-.479,0-.411-.479-.411-.89-.411-.205-.205-.479.205-.685.411A50.271,50.271,0,0,0,9.3,35.6h-.89C8.339,35.668,8.75,35.462,8.955,35.189ZM4.779,31.9a.53.53,0,0,0-.068.205A.53.53,0,0,0,4.779,31.9Zm.205,0a.519.519,0,0,1,.137-.274c-.068,0-.068,0-.137.068s-.137.137-.137.205Zm26.973-4.929a10.831,10.831,0,0,0,3.56-6.23,4.479,4.479,0,0,1,.89-2.259.717.717,0,0,1,.205-.411c-.205-1.575.205-3.355-.205-4.929A3.994,3.994,0,0,1,36.2,11.57v-.685c-1.575-1.575-1.985-3.765-3.149-5.819A6.587,6.587,0,0,0,29.7,2.191C27.713.89,25.249.89,22.784.616c-1.78,0-3.765.205-5.819.205-2.259.205-4.245,1.3-6.23,2.259C7.586,4.45,6.285,6.846,4.916,9.516a12.355,12.355,0,0,0-1.1,5.545c0,3.149,1.1,6.024,1.985,8.9a7.515,7.515,0,0,0,3.765,4.45c1.78.89,3.149,2.259,5.134,2.875a6.526,6.526,0,0,0,2.67.411C22.99,32.108,27.919,30.739,31.958,26.973Z" transform="matrix(0.966, -0.259, 0.259, 0.966, 63.626, 1344.983)"/>
    <path id="Path_1704" data-name="Path 1704" class="cls-1" d="M7.924,11.844c-.205,0-.685-.479-.89-.479C3.474,10.68,1.694,8.489.8,5.135.8,4.929.6,4.724.6,4.45A1.412,1.412,0,0,1,.12,2.67,3.971,3.971,0,0,1,2.995.411,32.591,32.591,0,0,1,7.445,0a13.716,13.716,0,0,1,3.149.685c.479,0,.685.205.685.685.411,1.1,1.1,1.985.89,3.355a19.845,19.845,0,0,1-.205,4.929C11.484,12.049,10.389,12.939,7.924,11.844Zm2.67-.89c.205-.205.205-.411.479-.685,0-.411.205-.89.205-1.3-.479,0-.685.685-.89.89a2.978,2.978,0,0,1-.479.411c-.479.205-.685.685-1.1.479-.205-.205.205-.685.205-.89-.479.205-1.1.411-1.1.89,0,.411.479.411.89.411C9.43,11.364,9.909,11.638,10.594,10.954ZM8.335,9.174c0-.205-.205-.205-.205-.411H7.65a6.144,6.144,0,0,1-1.3,1.1c-.205.205-.205.411.205.685A7.231,7.231,0,0,0,8.335,9.174Zm-1.1-1.1c.205,0,.205-.205.205-.411H7.034c-.89.411-1.369,1.369-2.259,1.78H4.57c.205.479.479.685.89.479C6.144,9.174,6.76,8.694,7.239,8.078Zm2.875,1.1c.479-.411.479-1.1,1.1-1.369.205,0,.205-.411.205-.411-.205-.205-.411,0-.685.205a21.68,21.68,0,0,0-1.78,2.259C9.43,9.858,9.7,9.379,10.115,9.174ZM4.364,8.968c1.1-1.1,2.465-1.78,3.56-2.875V5.682H7.719A15.921,15.921,0,0,1,3.68,8.352a.2.2,0,0,1-.205.205C3.68,8.968,3.885,9.379,4.364,8.968ZM9.019,7.6H8.814V7.8C9.019,7.8,9.019,7.8,9.019,7.6ZM3.68,6.914c0-.205.479-.685-.205-.479-.205,0-.479.205-.479-.205-.205-.205.205-.479.479-.685C4.364,4.861,5.46,4.176,6.35,3.56a8.344,8.344,0,0,0,1.78-1.1h.479c.205.205,0,.205-.205.411A16.111,16.111,0,0,1,6.144,4.45c0,.205-.685.205-.205.685a.7.7,0,0,0,.89.205A8.122,8.122,0,0,0,9.088,3.56c.205-.205.685-.685.89-.411.479.411-.205.411-.479.89-.205.205-1.1.685-.685.89.479.411.685-.411.89-.411.205-.205.479-.479.685-.205.205.205,0,.479-.205.685s-.685.205-.205.685c0,0,.205-.411.479-.411.205-.205.479-.685.685-.411.205.205,0,.685-.205.89-.205,0-.205.205-.479.411-.205.205-.205.685-.205,1.1h.205c.205-.411.89-.205.89-.89A3.183,3.183,0,0,0,11.552,5c-.205-.685,0-1.369-.205-1.985-.685-1.78-1.985-1.985-3.56-1.985a12.3,12.3,0,0,0-4.929.685c-.479,0-.685,0-.89.205-.205.411-.89.89-.685,1.369.205.205.685-.479,1.1-.685.89-.89,2.259-1.1,2.875-.479.685.479.89-.205,1.1-.205s.479-.411.685-.205-.205.411-.205.685c-.89.685-1.78.89-2.67,1.575H2.379c-.685-.205-.89,0-.685.89a6.012,6.012,0,0,0,.89,2.259c0,.411.205.89.685.685A.868.868,0,0,0,3.68,6.914ZM9.019,6.3a.2.2,0,0,1-.205-.205.636.636,0,0,0-.205.411h.205A.2.2,0,0,0,9.019,6.3ZM5.46,5.819V5.614l-.411.411V6.23C5.254,6.3,5.46,6.024,5.46,5.819ZM3.885,2.67H3.68l-.205.205H3.68C3.68,2.944,3.885,2.944,3.885,2.67Z" transform="matrix(0.966, -0.259, 0.259, 0.966, 73.509, 1359.629)"/>
    <path id="Path_1702" data-name="Path 1702" class="cls-1" d="M0,8.939V7.16c.205-1.3,0-2.875.479-4.245C.479.93,1.575-.234,3.355.04A12.124,12.124,0,0,1,9.584,2.5c1.575,1.1,3.149,2.67,2.875,5.134-.205.205-.205.411.205.685.685.479.685.89,0,1.575a7.3,7.3,0,0,0-1.3.479,65.1,65.1,0,0,1-7.6,1.3C2.465,11.815,0,10.925,0,8.939Zm3.56,1.3c.685-.89,1.575-1.369,1.78-2.465.205-.685.89-.89,1.369-1.1C7.12,6.27,7.6,6,7.8,5.79s.411-.685.685-.685c.205.205-.205.411-.205.685a.773.773,0,0,0,1.1.411c.205-.205.205-.685.685-.411.205.205,0,.411-.205.685V7.16c.479.205.479,0,.685-.205,1.3-1.1,1.1-1.1,0-2.465C8.558,2.23,6.093,1.34,3.149.93c-.89-.205-1.369.205-1.78,1.1,0,.411-.205,1.1-.205,1.575,0,1.369-.205,2.465-.205,3.765v.685c0,.685.205.411.411.205a9.528,9.528,0,0,0,1.985-1.78A3.186,3.186,0,0,0,4.039,4.01.717.717,0,0,0,3.834,3.6c-.479,0-.479.205-.479.411v.205c0,.411.205.89-.205.89-.685.205-.411-.411-.685-.89-.205-.411.205-1.1.411-1.369a.773.773,0,0,1,1.1-.411,1.174,1.174,0,0,1,.685,1.1c0,.205-.205.685.205.89a1.061,1.061,0,0,0,.685-.479c.479-.411.89-1.1.685,0a.576.576,0,0,0,.89.479c0-.205.205-.205.205-.479.205-.205.411-.89.89-.411.205.205-.205.411-.411.89C6.23,6.2,4.655,7.981,2.875,9.761c-.205.205-.89.205-.205.685C2.875,10.925,3.355,10.719,3.56,10.24Zm2.465-.89V9.145c-.205,0-.685,0-.685.205-.205.411-.89.685-.89,1.1h.411C5.614,10.446,5.614,9.829,6.024,9.35Zm3.149-.685c.205-.479,0-.205-.205-.205a5.043,5.043,0,0,0-2.259,1.575L6.5,10.24h.411C7.6,10.24,9.174,9.145,9.174,8.666ZM5.614,5.79V5.38H5.408A26.611,26.611,0,0,1,1.164,9.145v.411c.205.205.479.685.89.411A22.99,22.99,0,0,0,5.614,5.79Zm4.45,3.765a3.554,3.554,0,0,0,1.575-.411V6.886c-.205-.205-.411,0-.411.205-.685.685-1.1,1.575-1.78,2.259v.411h.205C9.79,9.829,10.064,9.556,10.064,9.556ZM8.489,7.16c0-.205-.205-.205-.411-.205-.685,0-.89.411-1.3.89v.205c-.205.205,0,.205.205.205C7.394,8.255,8.489,7.57,8.489,7.16Z" transform="matrix(0.966, -0.259, 0.259, 0.966, 83.984, 1343.244)"/>
    <path id="Path_1705" data-name="Path 1705" class="cls-1" d="M.546,8.489C.34,7.6.34,6.914.135,6.024A8.976,8.976,0,0,1,.34,1.985,2.6,2.6,0,0,1,2.8,0H8.829a8.8,8.8,0,0,1,1.78.685,3.34,3.34,0,0,1,1.575,4.245,12.379,12.379,0,0,1-7.12,5.819C3.01,11.364,1.436,10.474.546,8.489Zm4.929.205A.458.458,0,0,0,5,8.284,4.94,4.94,0,0,0,3.421,9.858a.2.2,0,0,0,.205.205A3.974,3.974,0,0,0,5.475,8.694Zm2.4-.411a8.683,8.683,0,0,1,1.1-1.369h.411c0,.205.205,0,.205-.205.479-.411.89-.89,1.369-1.369.89-1.1.205-2.259,0-3.355,0-.685-.89-.89-1.575-.89s-.685.685-1.1,1.1a.888.888,0,0,0,.205.479c1.3,1.1,1.575,1.575.205,3.081-1.1,1.1-1.78,2.67-3.149,3.355a.2.2,0,0,0-.205.205c0,.411.205.205.479.205A6.322,6.322,0,0,0,7.871,8.284ZM4.516,7.8c.205-.205,0-.685-.205-1.1V6.5A2.669,2.669,0,0,0,2.942,7.873a.614.614,0,0,1-.685.685c-.205,0-.479,0-.479.205-.205.205,0,.479.205.685h.685A10.583,10.583,0,0,0,4.516,7.8ZM6.091,7.6,6.3,7.394c0-.205-.205-.205-.205-.411a.717.717,0,0,1-.205.411C5.886,7.6,5.886,7.6,6.091,7.6Zm-4.655-.89L1.641,6.5c-.479-.89.479-1.369.685-1.985a.442.442,0,0,0,.411-.411,4.341,4.341,0,0,0,1.575-1.1H5c0,.205-.205.205-.205.411-.685.685-1.3,1.1-1.985,1.78,0,.205-.205.205-.205.479.205.205.411,0,.411-.205A13.975,13.975,0,0,0,6.365,2.6c.205-.205.411-.479.89-.205h.411c.411-.411,1.1-.685,1.1-1.3C8.761.89,7.871.89,7.392.89H3.9c-2.875.205-2.465.685-2.875,2.875A6.837,6.837,0,0,0,1.23,6.641C1.23,6.5,1.23,6.914,1.436,6.709Zm4.45-.479c0-.479-.479-.205-.685-.479-.205,0-.479,0-.479.205a6.453,6.453,0,0,1,.685.685A.385.385,0,0,0,5.886,6.23Zm2.67-.89c.205-.411-.205-.205-.479-.205a1.042,1.042,0,0,0-1.1,1.1c-.205.205,0,.411.205.411C7.871,6.5,8.076,5.819,8.555,5.34ZM3.9,6.024a.2.2,0,0,0-.205-.205.756.756,0,0,0-.205.479C3.626,6.23,3.626,6.024,3.9,6.024Zm3.355-1.1c0-.205-.479-.411-.685-.411a.461.461,0,0,0-.685.411c-.205.411.479.685.685.685S6.981,5.135,7.255,4.929Zm1.78-1.1c-.205-.685-.89-.479-1.1-.685-.479,0-.89,0-.685.411,0,.205.411.479.89.685C8.555,4.244,9.035,4.244,9.035,3.834Z" transform="matrix(0.966, -0.259, 0.259, 0.966, 87.69, 1356.537)"/>
    <path id="Path_1707" data-name="Path 1707" class="cls-1" d="M.122,7.908C.6,6.812,1.491,6.333,1.9,5.443A13.177,13.177,0,0,1,7.242.514C9.5-.582,10.6.1,11.486,2.294c.685,1.3,0,2.875.685,4.245-.205.89-.479,1.985-.685,2.875a2.462,2.462,0,0,1-2.465,2.259,33.911,33.911,0,0,1-6.435.205C.6,11.673-.357,9.893.122,7.908ZM9.022,9a6.454,6.454,0,0,1,.685-.685c.205-.205.205-.685.479-.411v.685a12.246,12.246,0,0,0-1.575,1.78c-.205,0-.205.205-.205.411h.479a1.733,1.733,0,0,0,1.78-1.575,12.028,12.028,0,0,0,.205-6.435C10.665,1.2,9.775.788,8.2,1.2c-2.465.89-4.039,2.67-5.545,4.655A30.662,30.662,0,0,0,1.08,8.524v1.1a2.27,2.27,0,0,0,.685.958c.685.685,1.1,0,1.575-.479.205-.205.685-.205.685-.685-.685,0-.89-1.369-1.78-.685a.277.277,0,0,1-.479.205V8.25A37.957,37.957,0,0,1,4.64,5.374c.479-.411.685-1.3,1.575-1.575l.205.205c0,.205-.411.685,0,.685.479,0,.89.685,1.369.411V4.69c-.205-.205-.205-.685-.479-.89-.411-.89,0-1.3.685-1.575.89-.479,1.369,0,1.78.685.479,1.1-.205,1.985-1.3,2.465a.2.2,0,0,0-.205.205c0,1.3-1.78,1.3-1.985,2.67-.205.685-1.3,1.1-1.985,1.78l-.479.479a.717.717,0,0,0-.205.411H4.3a2.491,2.491,0,0,1,1.1.205C7.242,11.467,7.926,9.893,9.022,9Zm-3.971-.89c0-.205-.479-.205-.685-.205s-.685-.205-.685.205.479.205.685.205C4.572,8.387,5.051,8.592,5.051,8.113Zm0-2.191H4.846a1.061,1.061,0,0,1-.479.685c0,.205.205.205.205.411.479,0,.89.205,1.369.205C5.667,6.812,5.256,6.607,5.051,5.922Zm1.78.205c0-.205-.205-.205-.479-.411-.205,0-.205.205-.205.411a.756.756,0,0,0,.479.205C6.9,6.333,6.831,6.333,6.831,6.128ZM8.816,3.663c0-.205,0-.411-.479-.411-.205,0-.205.205-.205.411.205.205,0,.479.479.685C8.816,4.348,8.816,3.868,8.816,3.663Z" transform="matrix(0.966, -0.259, 0.259, 0.966, 70.223, 1346.582)"/>
    <path id="Path_1706" data-name="Path 1706" class="cls-1" d="M.529,3.081A32.726,32.726,0,0,1,3.2.411c.205-.205.411-.685.89-.205.205.205-.205.479-.479.685-.685.685-1.575,1.1-1.985,1.985-.205,0-.205.205-.411.411-.205,0-.205.205-.479.205S.255,3.9.05,3.7C-.155,3.561.324,3.081.529,3.081Z" transform="matrix(0.966, -0.259, 0.259, 0.966, 89.065, 1357.373)"/>
    <path id="Path_1738" data-name="Path 1738" class="cls-1" d="M89.675,311.054v-.89c.411-.89,1.1-1.506,1.506-2.328.205-.205.616-.411.205-.89-.616-.411-.616,0-.89.411a12.279,12.279,0,0,0-1.506,1.917.717.717,0,0,1-.205.411v-.616a19.213,19.213,0,0,0,1.3-2.122v-.616c-.411-.205-.411,0-.616.411-.411.616-.89,1.3-1.3,1.917-.205.205-.205.411-.411.205v-.411a12.377,12.377,0,0,1,1.3-1.712c.205-.411.205-.89-.205-1.1s-.411.205-.616.411a10.011,10.011,0,0,0-.616.89c-.205.205-.205.205-.411.205v-.411a3.9,3.9,0,0,1,.89-1.1c.205-.411.411-1.1,0-1.3s-.616.411-.89.89c-.205,0,0,.411-.411.411v-.616c.616-1.1,1.3-1.712.89-3.012a2.034,2.034,0,0,1,.411-.89,4.9,4.9,0,0,1,4.108-2.328,7.433,7.433,0,0,1,3.423.89,3.578,3.578,0,0,1,2.6,3.628,4.336,4.336,0,0,1-3.012,3.628,1.594,1.594,0,0,0-1.506.89c-.205.411-.205,1.1-.89,1.3-.205-.616.205-1.1.411-1.506.205-.205.411-.205.205-.411-.205-.411-.411-.205-.616-.205-.411,0-.616.205-.89.616-.411.89-1.1,1.917-1.712,3.012C90.086,310.849,89.881,311.054,89.675,311.054Zm6.641-7.12c.411-.411.411-.616.205-1.3-.411-.616-.411-1.711-1.3-2.122A2.688,2.688,0,0,0,93.3,299.9h-.616c-.411.205-1.1,0-1.1.616a1.412,1.412,0,0,0,.89,1.1c.411,0,.89,0,1.1.616,0,0,.616-.205.411.205-.205.205-.205.616-.411.411-.205,0-.411,0-.411.205-.205,0-.411,0-.411.205a.636.636,0,0,0,.411.205,3.711,3.711,0,0,1,1.1-.411c.205-.205.89-.616.411.205.205,1.1,0,1.3-1.1,1.506-.205,0-.411,0-.411.205h.411A7.8,7.8,0,0,0,96.316,303.935ZM90.291,302.7l.205-.205h-.205Zm1.506-.479v-.205l-.205-.205v.411Z" transform="translate(19.351 1033.359)"/>
    <path id="Path_1703" data-name="Path 1703" class="cls-1" d="M0,.479C0,.205,0,0,.274,0A.268.268,0,0,1,.548.274c0,.274,0,.479-.274.479C0,.685,0,.479,0,.479Z" transform="matrix(0.966, -0.259, 0.259, 0.966, 99.193, 1345.517)"/>
    <path id="Path_1747" data-name="Path 1747" class="cls-1" d="M0,1.154c.258.687,0,1.717,1.116,1.975A.862.862,0,0,0,2.4,2.442,5.481,5.481,0,0,0,1.116.037C.515-.134,0,.295,0,1.154ZM1.546,2.27v.258c-.429,0-.429-.429-.429-.687-.258,0,0-.258,0-.258C1.374,1.583,1.546,2.012,1.546,2.27Z" transform="translate(70.102 1379.316) rotate(-115)"/>
    <path id="Path_1740" data-name="Path 1740" class="cls-1" d="M0,1.546C0,2.662.687,2.662,1.717,2.662A.734.734,0,0,0,2.4,1.975C2.4,1.116,1.717,0,1.116,0,.687,0,0,1.116,0,1.546Zm1.8.172c0,.258-.258.258-.429.258a.552.552,0,0,1-.429-.429c0-.172.258-.429.429-.687C1.546,1.116,1.8,1.288,1.8,1.717Z" transform="translate(74.086 1300.229) rotate(-115)"/>
    <path id="Path_3451" data-name="Path 3451" class="cls-1" d="M0,1.546C0,2.662.687,2.662,1.717,2.662A.734.734,0,0,0,2.4,1.975C2.4,1.116,1.717,0,1.116,0,.687,0,0,1.116,0,1.546Zm1.8.172c0,.258-.258.258-.429.258a.552.552,0,0,1-.429-.429c0-.172.258-.429.429-.687C1.546,1.116,1.8,1.288,1.8,1.717Z" transform="translate(34.29 1377.631) rotate(-115)"/>
    <path id="Path_1745" data-name="Path 1745" class="cls-1" d="M0,1.546C0,2.662.687,2.662,1.717,2.662A.734.734,0,0,0,2.4,1.975C2.4,1.116,1.717,0,1.116,0,.687,0,0,1.116,0,1.546Zm1.8.172c0,.258-.258.258-.429.258a.552.552,0,0,1-.429-.429c0-.172.258-.429.429-.687C1.546,1.116,1.8,1.288,1.8,1.717Z" transform="translate(51.815 1341.485) rotate(-115)"/>
    <path id="Path_1741" data-name="Path 1741" class="cls-1" d="M0,.687a.9.9,0,0,0,.687.859C1.116,1.288,1.8,1.288,1.8.687A.78.78,0,0,0,.945,0C.429.086,0,.258,0,.687Z" transform="matrix(0.07, -0.998, 0.998, 0.07, 115.897, 1314.49)"/>
    <path id="Path_3450" data-name="Path 3450" class="cls-1" d="M0,.687a.9.9,0,0,0,.687.859C1.116,1.288,1.8,1.288,1.8.687A.78.78,0,0,0,.945,0C.429.086,0,.258,0,.687Z" transform="matrix(0.07, -0.998, 0.998, 0.07, 72.084, 1322.157)"/>
    <path id="Path_1746" data-name="Path 1746" class="cls-1" d="M0,.687a.9.9,0,0,0,.687.859C1.116,1.288,1.8,1.288,1.8.687A.78.78,0,0,0,.945,0C.429.086,0,.258,0,.687Z" transform="translate(54.289 1357.193) rotate(-115)"/>
    <path id="Path_1739" data-name="Path 1739" class="cls-1" d="M0,.515C0,.945.429.945.687.945S.945.687,1.116.687C.859.258.687.258.429,0A.634.634,0,0,0,0,.515Z" transform="translate(106.095 1304.406) rotate(-115)"/>
    <path id="Path_1744" data-name="Path 1744" class="cls-1" d="M0,.515C0,.945.429.945.687.945S.945.687,1.116.687C.859.258.687.258.429,0A.634.634,0,0,0,0,.515Z" transform="translate(45.123 1347.854) rotate(-115)"/>
    <path id="Path_1743" data-name="Path 1743" class="cls-1" d="M0,.515C0,.945.429.945.687.945S.945.687,1.116.687C.859.258.687.258.429,0A.634.634,0,0,0,0,.515Z" transform="matrix(0.07, -0.998, 0.998, 0.07, 76.959, 1332.091)"/>
    <path id="Path_1748" data-name="Path 1748" class="cls-1" d="M0,.515C0,.945.429.945.687.945S.945.687,1.116.687C.859.258.687.258.429,0A.634.634,0,0,0,0,.515Z" transform="translate(78.095 1352.433) rotate(-115)"/>
  </g>
</svg>
