<svg xmlns="http://www.w3.org/2000/svg" viewBox="-2759 -592 147 128.384">
  <defs>
    <style>
      .cls-1, .cls-6 {
        fill: #4e2a0e;
      }

      .cls-1 {
        font-size: 32.19px;
        font-family: Almaq-Refined, Almaq Refined;
        letter-spacing: 0.08em;
      }

      .cls-2 {
        letter-spacing: 0.07em;
      }

      .cls-3 {
        letter-spacing: 0.09em;
      }

      .cls-4 {
        letter-spacing: 0.1em;
      }

      .cls-5 {
        fill: #f77e0b;
      }
    </style>
  </defs>
  <g id="Symbol_2_2" data-name="Symbol 2 – 2" transform="translate(-1517.692 267.2)">
    <text id="ALIMENTE" class="cls-1" transform="translate(-1241.308 -737.816)"><tspan x="0" y="0">ALIM</tspan><tspan class="cls-2" y="0">E</tspan><tspan class="cls-3" y="0">NT</tspan><tspan class="cls-4" y="0">E</tspan></text>
    <g id="Lc7BEb.tif" transform="translate(-1238.013 -859.2)">
      <path id="Path_650" data-name="Path 650" class="cls-5" d="M106.925,68.385C102.355,78.714,92.87,88.66,78.59,89.73,40.423,92.589,33.607,51.977,35.2,46.893c.941-3.014,3.16-1.882,5.661-1.134,5.979,1.788-3.033-19.028,14.3-40.694C67.977-10.965,57.928,15.638,74.912,21.7c6.6,2.356,6.526-7.809,6.954-9.128C85.593,1.085,94.677,23.6,98.379,41.447,101.059,54.371,114.081,52.212,106.925,68.385Z"/>
    </g>
    <g id="Group_36" data-name="Group 36" transform="translate(-1238.013 -859.2)">
      <path id="Path_651" data-name="Path 651" class="cls-6" d="M99.918,59.242a.208.208,0,0,0-.013-.08C99.911,59.19,99.912,59.215,99.918,59.242Z"/>
      <path id="Path_652" data-name="Path 652" class="cls-6" d="M99.445,57.983l0,.017Z"/>
      <path id="Path_653" data-name="Path 653" class="cls-6" d="M99.918,59.242c.294-.564-1.2-3.422-.961-4.609.3-1.511,1.474-2.8,2.292-4.049,1.435-2.189,4.68-6.5,2.6-9.29-2.669-3.576-2.712,2.516-3.157,4.3-.771,3.089-2.892,5.439-6.248,5.6A8.489,8.489,0,0,1,87.7,47.762a8.727,8.727,0,0,1-2.036-4.486c-.126-.889.643-4.345-.5-4.976-2.736-1.5-2.954,5.516-2.6,6.779.826,2.987,3.053,5.793,4.878,8.25-6.524,4.773-14.337.523-21.294-.377-6.578-.851-12.048,2.946-18.3,2.765-1.055-.031-2.058-1.494-2.707.107-.417,1.029.967,2.312,1.718,2.792,2.379,1.521,6.087.211,8.557-.449-1.816,2.084-.329,4.6-1.244,6.852-.785,1.933-2.571,2.552-3.519,4.6-.452.979-1.606,5.257-.821,5.852,2.206,1.673,3.756-4.071,5.127-4.8-.5,1.826-.294,13.189,3.455,8.5,1.631-2.039-.755-4.564,2.742-6.337,1.873-.949,4.375-.835,6.408-.735,1.669.081,10.814.319,11.585,1.879,1.258,2.542-10.1,9.152-1.482,7.1,3.151-.751,3.213-4.183,5.492-5.128,1.9-.787,3.948,1.319,5.2,2.755,1.183,1.355,2.957,4.973,5.047,2.033,1.8-2.53-2.191-5.012-3.085-6.885-1.635-3.426.16-7.216,2.218-10.144,1.515-2.157,1.8-2.389,4.137-2.392C98.2,61.317,100.758,63.186,99.918,59.242Zm-3.876-1.666C91.163,54.918,84.449,70.061,85.5,72.9c-6.759-3.783-21.048-5.387-27.947-1.486.28-1.821.741-4.221-2.033-3.672,1.759-2.045.09-5.186,1.568-7.469.788-1.217,7.35-3.978,4.868-5.237,6.294.31,12.03,3.846,18.431,3.3,1.9-.162,13.878-2.565,10.329-6.159a8.166,8.166,0,0,0,6.559.263,8.031,8.031,0,0,0-.082,5.942,6.784,6.784,0,0,0-1.151-.806Zm2.715-3.68a.073.073,0,0,1-.027.016l.1-.1a.513.513,0,0,1-.072.088Zm-.663,6.511a.209.209,0,0,0,.013.04c0,.009,0,.044-.012-.04Z"/>
    </g>
  </g>
</svg>
